<svg version="1.1" id="Layer_1" xmlns="http://www.w3.org/2000/svg" xmlns:xlink="http://www.w3.org/1999/xlink" x="0px" y="0px"
	 width="100%" viewBox="0 0 1685 747" enable-background="new 0 0 1685 747" xml:space="preserve">
<path fill="#FFFFFF" opacity="1.000000" stroke="none" 
	d="
M1182.000000,748.000000 
	C788.000000,748.000000 394.500000,748.000000 1.000000,748.000000 
	C1.000000,499.000000 1.000000,250.000000 1.000000,1.000000 
	C562.666687,1.000000 1124.333374,1.000000 1686.000000,1.000000 
	C1686.000000,250.000000 1686.000000,499.000000 1686.000000,748.000000 
	C1518.166626,748.000000 1350.333374,748.000000 1182.000000,748.000000 
M871.882507,743.030884 
	C874.927002,742.975037 877.971558,742.919250 881.943665,742.990417 
	C984.795105,742.993591 1087.646484,742.997253 1190.497925,742.994385 
	C1191.660034,742.994385 1192.822021,742.908997 1194.910400,743.031189 
	C1207.278931,742.975220 1219.647339,742.919312 1232.943604,742.990417 
	C1264.697876,742.993591 1296.452148,743.015686 1328.206421,742.994507 
	C1356.798950,742.975403 1385.391602,742.908936 1414.732910,743.030701 
	C1415.494019,742.974915 1416.255005,742.919128 1417.943848,742.990356 
	C1505.274780,742.990356 1592.605713,742.990356 1679.994995,742.990356 
	C1679.994995,660.345337 1679.995361,578.418762 1679.988647,496.492188 
	C1679.988647,495.996765 1679.889404,495.501343 1679.971436,494.177979 
	C1679.926392,492.783356 1679.881470,491.388702 1679.988403,489.068451 
	C1679.988403,328.080994 1679.988403,167.093506 1679.988403,6.000325 
	C1678.653931,6.000325 1677.994507,6.000325 1677.335083,6.000324 
	C1552.573486,6.000217 1427.811890,5.997357 1303.050293,6.036281 
	C1301.705688,6.036700 1300.361450,6.583973 1298.169312,6.963452 
	C1296.403198,6.642800 1294.638428,6.055482 1292.870605,6.046132 
	C1283.568848,5.996929 1274.266357,6.093710 1264.039307,6.009871 
	C844.074585,6.009871 424.109924,6.009871 4.000032,6.009871 
	C4.000032,7.635361 4.000033,8.623003 4.000032,9.610645 
	C4.000023,134.241562 3.999581,258.872467 4.006796,383.503387 
	C4.006863,384.665558 4.109209,385.827698 4.020846,387.916046 
	C4.068491,407.280762 4.116136,426.645477 4.011580,446.935211 
	C4.011580,545.505310 4.011580,644.075439 4.011580,743.000000 
	C6.226247,743.000000 8.019518,743.000000 9.812788,743.000000 
	C246.706955,743.000000 483.601135,743.000305 720.495300,742.994324 
	C722.324890,742.994324 724.154541,742.908936 726.851013,743.030945 
	C728.905945,742.975098 730.960876,742.919250 733.943481,742.990417 
	C779.623657,742.948059 825.303894,742.905762 871.882507,743.030884 
z"/>
<path fill="#000000" opacity="1.000000" stroke="none" 
	d="
M4.163806,386.989868 
	C4.109209,385.827698 4.006863,384.665558 4.006796,383.503387 
	C3.999581,258.872467 4.000023,134.241562 4.000032,9.610645 
	C4.000033,8.623003 4.000032,7.635361 4.000032,6.009871 
	C424.109924,6.009871 844.074585,6.009871 1264.289062,6.440910 
	C1244.136230,7.182053 1225.524292,14.418530 1207.084717,22.041718 
	C1181.929565,32.441219 1161.944336,49.772655 1145.056641,70.641228 
	C1131.202881,87.760735 1121.056763,107.046448 1114.982544,128.360641 
	C1112.227905,138.026535 1108.314209,147.479279 1110.187256,156.583618 
	C1153.213623,167.937744 1195.552124,179.110336 1238.489990,190.441116 
	C1220.599121,170.875137 1205.356323,149.915543 1193.312988,126.728439 
	C1181.369995,103.734177 1171.981445,79.817802 1167.439819,53.983894 
	C1189.997925,70.645859 1209.036743,90.751945 1226.762207,112.230682 
	C1244.270630,133.446259 1256.965698,157.436249 1267.863403,182.769226 
	C1258.184692,123.719704 1262.266113,66.143166 1282.994629,10.059044 
	C1301.245728,67.549126 1303.212402,125.444122 1288.467896,184.084366 
	C1290.182861,182.920410 1291.557861,181.636948 1292.399170,180.067322 
	C1296.901489,171.666351 1301.054199,163.071991 1305.730713,154.771439 
	C1315.513550,137.407578 1327.062256,121.281769 1340.770508,106.776001 
	C1345.917969,101.329079 1351.232910,96.028725 1356.675415,90.876793 
	C1359.762451,87.954391 1363.251709,85.454689 1366.578613,82.788155 
	C1372.199707,78.282936 1378.987915,74.992310 1382.050171,67.835487 
	C1383.266968,64.991646 1392.563232,60.035522 1396.181641,60.562370 
	C1395.890625,61.799305 1395.709961,63.060143 1395.296875,64.239555 
	C1393.220093,70.167709 1391.389404,76.207039 1388.904907,81.962387 
	C1383.014893,95.607101 1377.894043,109.743668 1370.492554,122.542213 
	C1355.950439,147.688049 1337.466675,169.997757 1316.933716,190.564850 
	C1312.813232,194.692200 1308.626343,198.755829 1304.610840,202.982513 
	C1303.854248,203.778809 1303.764648,205.208527 1303.367188,206.345932 
	C1335.771484,189.932266 1369.370117,184.466858 1405.347656,186.244461 
	C1391.036255,200.895615 1374.086060,210.045639 1356.409790,217.890396 
	C1348.203003,221.532593 1339.450684,223.937759 1330.990479,227.026169 
	C1329.969360,227.398895 1329.228882,228.539734 1328.358398,229.324585 
	C1329.249756,229.874023 1330.074097,230.669724 1331.043213,230.933838 
	C1338.671997,233.013153 1346.277344,235.217422 1353.986450,236.954575 
	C1372.296631,241.080475 1390.605347,245.251129 1409.024048,248.841431 
	C1418.760864,250.739380 1428.726929,251.460709 1438.611328,252.716019 
	C1447.292603,231.999374 1453.399048,211.690475 1452.926392,189.969528 
	C1452.675537,178.450134 1452.005249,166.915054 1450.914307,155.445099 
	C1449.572510,141.336746 1445.612183,127.806404 1439.479614,115.044502 
	C1428.646973,92.501869 1414.937866,72.090889 1396.538818,54.743168 
	C1384.059082,42.976486 1370.365479,33.263325 1355.545654,24.923096 
	C1337.952637,15.022112 1318.577881,10.643657 1299.016968,6.875966 
	C1300.361450,6.583973 1301.705688,6.036700 1303.050293,6.036281 
	C1427.811890,5.997357 1552.573486,6.000217 1677.335083,6.000324 
	C1677.994507,6.000325 1678.653931,6.000325 1679.988403,6.000325 
	C1679.988403,167.093506 1679.988403,328.080994 1679.506470,489.533447 
	C1677.584229,490.231873 1676.034668,490.200378 1674.721313,490.741669 
	C1666.025635,494.325562 1657.142456,497.561401 1648.767822,501.795593 
	C1630.315063,511.125061 1612.045410,520.828613 1593.884521,530.716370 
	C1588.956787,533.399414 1585.628662,533.205444 1580.503174,530.205933 
	C1566.654663,522.101685 1552.110840,515.169495 1537.737183,507.983765 
	C1519.767822,499.000458 1502.962280,488.227356 1486.720825,476.421387 
	C1470.505127,464.634003 1458.751709,450.048157 1454.511963,430.069672 
	C1453.062988,423.240997 1454.210327,417.053040 1458.819458,411.691925 
	C1468.838867,400.038055 1481.461182,392.728638 1496.552368,390.099487 
	C1505.076172,388.614471 1513.732056,387.709595 1522.367920,387.117371 
	C1527.085205,386.793884 1531.900269,388.095703 1536.643799,387.919830 
	C1551.099976,387.383881 1564.490234,391.301849 1577.110107,397.733612 
	C1585.777100,402.150848 1593.855957,407.713379 1602.297363,412.591522 
	C1603.413086,413.236237 1605.607910,413.455353 1606.416382,412.791748 
	C1607.256836,412.101746 1607.722168,409.664093 1607.146973,408.742767 
	C1602.245239,400.891052 1597.705811,392.678528 1591.807251,385.618988 
	C1585.044067,377.524841 1575.680176,372.705109 1566.012939,368.324554 
	C1551.638184,361.810883 1536.578735,358.842041 1521.062378,358.101654 
	C1505.897339,357.378021 1491.252319,359.482574 1476.987671,365.736725 
	C1462.104980,372.261749 1450.160522,381.836182 1440.129028,394.317993 
	C1429.735840,407.249573 1424.890381,421.638641 1425.802368,438.447418 
	C1426.497192,451.254211 1430.889526,462.035034 1439.591187,470.968628 
	C1453.015747,484.751251 1468.035645,496.652283 1484.362671,506.875458 
	C1501.991577,517.913940 1519.689209,528.847168 1537.170776,540.114807 
	C1543.142822,543.963928 1548.551880,548.686462 1554.517334,553.238220 
	C1547.166870,559.414490 1540.708984,565.268860 1533.811279,570.549072 
	C1518.580933,582.208130 1504.768677,595.069397 1494.715820,611.689453 
	C1487.507202,623.606750 1486.125122,635.998718 1492.828491,647.975525 
	C1499.625732,660.120483 1520.244995,668.110291 1534.036011,664.842407 
	C1550.992065,660.824463 1566.066895,652.513000 1580.524780,643.001587 
	C1590.805176,636.238342 1599.609131,627.860901 1607.154175,618.230774 
	C1611.756958,612.355774 1616.759766,606.440918 1619.734131,599.725220 
	C1624.332520,589.342834 1622.507446,578.365784 1617.594849,568.491760 
	C1613.424316,560.108826 1607.790283,552.453918 1602.735107,544.367249 
	C1610.671631,539.384460 1619.310303,533.980286 1627.929321,528.544922 
	C1640.716431,520.481140 1653.518677,512.440796 1666.253052,504.294647 
	C1670.871582,501.340210 1675.313843,498.110229 1679.836426,495.005951 
	C1679.889404,495.501343 1679.988647,495.996765 1679.988647,496.492188 
	C1679.995361,578.418762 1679.994995,660.345337 1679.994995,742.990356 
	C1592.605713,742.990356 1505.274780,742.990356 1417.523926,742.595703 
	C1422.775146,733.711487 1428.973511,725.520142 1433.984131,716.657288 
	C1440.283447,705.514954 1445.431519,693.727661 1451.456177,682.421082 
	C1453.518799,678.550415 1453.800537,675.538696 1450.206055,672.869507 
	C1447.278809,670.695740 1440.949341,671.754822 1439.147949,674.880005 
	C1436.682373,679.157471 1434.740967,683.733337 1432.418213,688.097900 
	C1429.755127,693.101990 1426.920532,698.014771 1423.559692,704.045166 
	C1418.090210,695.678955 1413.409058,688.295532 1408.479370,681.081970 
	C1406.353271,677.970886 1404.234619,674.118652 1401.139648,672.640930 
	C1398.702148,671.477112 1394.168091,672.538391 1391.655640,674.230469 
	C1388.297852,676.491638 1389.890137,680.096558 1391.988770,683.003296 
	C1400.228516,694.414856 1408.456055,705.835327 1416.612915,717.148315 
	C1413.928345,721.700867 1411.243408,725.888184 1408.926025,730.269897 
	C1405.442627,736.856079 1406.099121,738.320557 1413.014771,741.278381 
	C1413.479004,741.476929 1413.667480,742.320007 1413.984131,742.863403 
	C1385.391602,742.908936 1356.798950,742.975403 1328.206421,742.994507 
	C1296.452148,743.015686 1264.697876,742.993591 1232.509521,742.582275 
	C1234.019897,739.176208 1236.995239,736.310913 1234.536377,732.358948 
	C1231.974854,728.242065 1227.684814,728.877502 1223.711182,729.077576 
	C1219.583130,729.285400 1215.466797,729.926392 1211.342041,729.956665 
	C1196.368286,730.066589 1196.180664,729.806519 1197.047119,714.572815 
	C1197.090942,713.802673 1197.465698,713.051331 1197.808472,711.870667 
	C1207.452515,711.243469 1217.031128,710.682251 1226.596680,709.950500 
	C1228.709595,709.788879 1231.367554,709.649414 1232.713867,708.377258 
	C1234.376465,706.806274 1235.887573,703.962952 1235.668091,701.856689 
	C1235.485718,700.108154 1232.822998,697.442200 1231.048706,697.262817 
	C1226.313232,696.783813 1221.460693,697.361084 1216.661621,697.637634 
	C1210.619873,697.985657 1204.584961,698.451965 1198.270508,698.886353 
	C1198.682739,692.953918 1199.052856,687.628418 1199.423584,682.293701 
	C1210.129883,681.151306 1220.262207,679.588257 1230.513672,682.701843 
	C1232.596313,683.334473 1236.168579,681.896118 1237.822876,680.206787 
	C1239.140747,678.861023 1239.677490,674.613037 1238.628296,673.535522 
	C1236.507202,671.357361 1233.141113,669.419128 1230.168335,669.225464 
	C1221.293579,668.647278 1212.360352,668.898621 1203.450806,668.955078 
	C1200.015625,668.976807 1196.508179,669.893005 1193.164551,669.438965 
	C1186.894775,668.587463 1184.129517,670.633484 1183.981812,676.928650 
	C1183.600586,693.176575 1183.187622,709.424255 1182.664673,725.668091 
	C1182.447998,732.398010 1185.648804,737.982971 1191.615723,740.819885 
	C1192.523804,741.251648 1193.200439,742.170105 1193.984131,742.863403 
	C1192.822021,742.908997 1191.660034,742.994385 1190.497925,742.994385 
	C1087.646484,742.997253 984.795105,742.993591 881.541992,742.576050 
	C881.807251,741.770691 882.471985,741.375854 883.141235,740.989014 
	C888.128479,738.105835 894.139282,736.173584 897.885193,732.138550 
	C904.994873,724.480225 908.670959,714.619812 909.894104,704.213928 
	C910.782532,696.655579 910.365479,688.945557 911.214355,681.379883 
	C911.710205,676.960388 910.644592,674.135193 906.398621,673.120056 
	C901.592529,671.971130 897.959656,674.160583 897.087891,678.842773 
	C896.365417,682.723511 896.240723,686.727905 896.018738,690.686951 
	C895.451233,700.808777 894.627686,710.845093 890.106323,720.193237 
	C887.434204,725.718079 882.670349,728.115967 877.084351,728.917236 
	C871.604370,729.703308 866.117859,728.304810 864.148865,722.790405 
	C861.960083,716.660645 860.642578,710.022095 860.200500,703.519775 
	C859.720032,696.452820 860.682861,689.287781 861.381104,682.090393 
	C862.680603,683.020752 863.681519,683.973022 864.539001,685.040527 
	C869.018921,690.617249 871.892517,690.424805 877.422180,688.752075 
	C882.251404,687.291077 883.490234,683.272827 883.013184,678.575562 
	C882.929626,677.752869 882.885254,676.885620 883.047668,676.084473 
	C886.336426,659.864746 881.578186,656.814575 869.570618,649.032593 
	C863.206665,644.908142 856.657227,648.960327 857.115417,656.405945 
	C857.498413,662.630188 858.889709,668.792419 859.469360,674.939697 
	C850.712280,671.209351 846.181580,674.093628 846.038574,683.511230 
	C845.877258,694.135010 845.689331,704.774841 846.086609,715.386230 
	C846.508057,726.642334 854.297974,738.630371 867.069824,740.917114 
	C868.446594,741.163635 869.682678,742.195740 870.984070,742.863403 
	C825.303894,742.905762 779.623657,742.948059 733.510437,742.577576 
	C737.569214,736.298157 738.264221,729.943909 737.345154,722.587891 
	C736.313721,714.332458 737.108093,705.848938 737.108093,695.910950 
	C739.667786,698.328613 741.114136,699.595276 742.448181,700.970703 
	C752.133972,710.956848 761.628174,721.137146 771.556702,730.875061 
	C775.158142,734.407349 779.519104,737.404114 784.009094,739.725098 
	C788.621643,742.109314 793.913940,738.861511 794.870667,733.692932 
	C795.440735,730.612854 795.912842,727.466431 795.948669,724.344360 
	C796.076538,713.187927 796.291016,702.018066 795.870300,690.876099 
	C795.673767,685.672241 794.558044,680.374207 792.976257,675.399536 
	C792.014221,672.373962 789.568298,669.800537 785.343384,670.719543 
	C781.172546,671.626770 779.717468,673.826172 779.919861,678.110168 
	C780.483826,690.046082 780.682495,701.999634 780.980591,713.947266 
	C781.019165,715.496399 780.794250,717.052185 780.656189,719.136902 
	C778.703064,717.999878 777.220337,717.488281 776.213562,716.494507 
	C768.530640,708.910706 760.842834,701.326355 753.377075,693.531006 
	C750.926392,690.972107 749.126282,687.790161 747.407104,684.942810 
	C749.029968,685.657349 750.383850,686.175903 751.500244,687.011780 
	C757.060669,691.174805 762.172241,688.993225 767.693115,684.476440 
	C772.063965,680.900635 771.659424,676.240173 767.831482,671.283875 
	C766.679016,669.791687 764.849854,667.691345 765.205444,666.376709 
	C766.282654,662.393799 763.970886,659.401489 763.477112,656.084473 
	C762.570129,649.991638 758.981323,646.529114 755.234741,642.803650 
	C750.778931,638.373047 742.137085,637.676514 736.758240,641.050293 
	C732.067688,643.992371 729.104736,652.513611 731.013611,658.112488 
	C732.492615,662.450134 734.237000,666.697327 735.464478,670.986084 
	C733.282166,670.660522 731.190430,669.584778 729.780640,670.165222 
	C726.995361,671.312073 722.828186,673.006775 722.382263,675.134949 
	C721.390076,679.869751 722.425354,685.010193 722.478088,689.986938 
	C722.606567,702.115295 723.168335,714.273315 722.502563,726.361389 
	C722.166809,732.457031 721.281189,738.082092 725.984131,742.863403 
	C724.154541,742.908936 722.324890,742.994324 720.495300,742.994324 
	C483.601135,743.000305 246.706955,743.000000 9.812788,743.000000 
	C8.019518,743.000000 6.226247,743.000000 4.011580,743.000000 
	C4.011580,644.075439 4.011580,545.505310 4.500572,446.517212 
	C5.659600,451.205292 6.401571,456.303223 6.984086,461.419250 
	C8.062583,470.891327 8.475890,480.478607 10.186412,489.831329 
	C14.215863,511.863403 23.450748,531.981384 34.759613,551.109985 
	C43.248894,565.469299 55.733433,575.994873 69.966919,584.354431 
	C87.188194,594.468750 106.216339,597.735657 125.703857,595.693604 
	C142.306198,593.953796 157.540359,586.589539 172.059937,578.761230 
	C190.364777,568.892029 208.852570,559.119873 224.643265,545.161621 
	C234.505081,536.444275 245.188171,528.619629 254.698837,519.551270 
	C264.513885,510.192627 273.454651,499.902893 282.579041,489.840149 
	C286.987732,484.978119 291.346130,479.977814 295.019867,474.560364 
	C304.122467,461.137360 313.335663,447.742462 321.545288,433.772644 
	C331.762970,416.385925 340.644104,398.257782 346.576538,378.864380 
	C348.698914,371.926239 344.344452,366.435181 337.198547,365.922333 
	C327.846100,365.251129 320.870148,370.471069 313.737793,374.990509 
	C309.384186,377.749176 304.780609,381.129974 302.136719,385.380432 
	C294.084625,398.325500 287.485291,412.183960 279.275299,425.018311 
	C270.281189,439.078461 260.735626,452.888031 250.268478,465.869965 
	C242.523376,475.475830 233.284058,483.991333 224.045120,492.248199 
	C213.514114,501.659790 202.610657,510.748077 191.197296,519.053772 
	C178.740662,528.118713 165.412704,535.897400 149.817627,538.599792 
	C135.425110,541.093811 121.126602,544.394104 106.563988,539.046448 
	C94.162331,534.492310 83.049835,528.514343 74.803589,517.654114 
	C64.155197,503.630371 59.163399,487.478577 56.110928,470.602478 
	C54.448040,461.408936 53.434433,452.039734 52.941658,442.706818 
	C52.259567,429.788452 51.776936,416.807495 52.281406,403.895233 
	C52.676826,393.774261 54.820824,383.730499 55.961559,373.626892 
	C56.848206,365.773682 56.754524,357.761627 58.217495,350.032318 
	C60.799824,336.389160 63.765461,322.779205 67.418922,309.386749 
	C73.907753,285.600739 80.885185,261.944305 87.931755,238.315262 
	C94.097862,217.638611 103.074593,198.169174 114.076927,179.610855 
	C125.182877,160.877762 137.915665,143.320236 153.040695,127.678207 
	C160.469818,119.995163 169.161575,113.546448 177.107529,106.346664 
	C189.854156,94.797043 204.322708,85.749275 219.235031,77.427849 
	C239.896698,65.898163 262.175690,58.935410 285.445831,54.873775 
	C289.569794,54.153973 293.816681,52.771667 297.414215,50.677345 
	C305.840027,45.772224 305.021606,32.944378 295.302185,27.350445 
	C287.444244,22.827869 278.671265,19.782354 270.100128,16.637836 
	C256.629852,11.695963 243.002701,11.920692 229.845001,17.694294 
	C214.992584,24.211540 199.725723,30.166986 185.834869,38.387383 
	C171.367584,46.948914 157.717911,57.199688 144.850601,68.062111 
	C134.114410,77.125465 124.509560,87.698547 115.341171,98.405777 
	C104.354195,111.236816 94.078995,124.709785 84.008224,138.285080 
	C69.958305,157.224213 59.384369,178.152573 50.019012,199.743652 
	C41.347603,219.734909 32.566444,239.693024 27.571146,260.989471 
	C22.160759,284.055511 16.487442,307.098969 12.288419,330.397339 
	C9.090462,348.141235 8.040180,366.270721 5.933619,384.216827 
	C5.818572,385.196930 4.775108,386.068024 4.163806,386.989868 
M757.867126,247.009232 
	C764.679199,246.103531 765.928772,244.684418 763.577820,239.932266 
	C761.084351,242.128357 758.673279,244.251892 755.825134,246.756577 
	C755.677979,247.093811 755.530762,247.431030 755.383606,247.768265 
	C755.946899,247.539261 756.510132,247.310272 757.867126,247.009232 
M626.507446,512.007629 
	C625.004761,495.785950 623.489685,479.565430 622.004700,463.342133 
	C621.253967,455.140991 620.294067,446.946442 619.931030,438.726746 
	C619.696899,433.424500 619.236023,427.709656 620.835571,422.820557 
	C628.720398,398.720764 637.446838,374.897797 645.506104,350.853119 
	C651.535217,332.865356 657.318420,314.781403 662.631348,296.571136 
	C668.122009,277.751923 672.830139,258.705780 678.029358,239.799835 
	C684.943970,214.656708 689.848877,189.117981 693.007141,163.258163 
	C694.959900,147.269516 696.652771,131.236115 697.913086,115.179703 
	C699.096252,100.108147 696.990479,85.174904 693.877014,70.469948 
	C690.680359,55.372147 684.151245,41.911282 671.625916,32.176834 
	C652.419983,17.250374 634.180786,19.207258 617.470398,32.376671 
	C597.005798,48.504753 589.077576,71.610947 586.036499,96.658516 
	C585.104248,104.337532 584.719910,112.081474 583.907776,119.777023 
	C582.338684,134.646042 580.467957,149.485153 579.061462,164.368744 
	C578.083557,174.717850 577.505493,185.113098 577.043884,195.500839 
	C576.242371,213.539734 575.601868,231.586609 575.021851,249.634247 
	C574.579346,263.402679 574.332214,277.177399 574.002930,290.949463 
	C573.665649,305.054626 573.027710,319.160858 573.070557,333.264984 
	C573.137695,355.370178 573.464661,377.479584 574.073914,399.576385 
	C574.448547,413.162567 569.124878,424.750549 563.213257,436.443756 
	C558.232056,446.296478 549.274597,453.974976 547.623962,465.655182 
	C546.757263,471.787964 544.522278,477.787872 544.180115,483.918915 
	C543.753723,491.559540 550.407166,495.958435 556.906860,492.327057 
	C562.206970,489.365875 566.655212,484.881592 571.487244,481.080383 
	C572.979736,479.906311 574.492004,478.757446 576.520264,477.191742 
	C577.134766,482.717651 579.573914,486.896698 575.600281,491.010223 
	C565.004456,501.979218 554.998352,513.538208 544.090210,524.178284 
	C536.109436,531.962830 527.062622,538.596558 516.241943,542.353638 
	C509.722076,544.617493 502.725525,542.617798 498.938782,536.674683 
	C493.682892,528.425903 493.613098,518.805725 493.245087,509.653198 
	C492.836212,499.484528 494.019989,489.209045 495.050934,479.034790 
	C496.822327,461.553101 498.343079,444.003265 501.200928,426.685364 
	C504.606842,406.046387 509.330322,385.625519 513.438660,365.101318 
	C514.587097,359.363922 515.579346,353.595276 516.746826,347.280853 
	C510.388458,346.070435 505.007690,344.486359 499.542877,344.104614 
	C478.122589,342.608185 457.701447,346.142273 438.238464,355.817841 
	C417.131592,366.310638 399.031403,380.249695 383.370514,397.890930 
	C370.445801,412.450043 358.609436,427.714355 347.646515,443.769989 
	C334.023193,463.721863 320.811127,483.697327 314.580841,507.575714 
	C309.563141,526.806702 306.887085,546.138184 310.203491,565.741821 
	C312.140717,577.192932 318.908661,586.345581 329.334351,592.031006 
	C344.870453,600.503174 359.765930,594.883728 373.347595,587.627380 
	C383.917847,581.979980 393.087067,573.571106 402.494690,565.917236 
	C419.263519,552.274414 432.983185,535.796326 445.380981,518.184021 
	C448.230286,514.136230 450.883240,509.950256 453.626556,505.827881 
	C454.068237,506.007294 454.509949,506.186676 454.951660,506.366089 
	C454.635437,508.485229 454.017212,510.609283 454.051514,512.722717 
	C454.294159,527.659668 453.686676,542.700928 455.288177,557.499207 
	C456.812927,571.588074 463.731323,582.589661 478.769073,587.181030 
	C493.886292,591.796753 507.787262,587.330261 520.692505,581.301636 
	C543.465088,570.663452 561.931580,554.394836 574.994202,532.520447 
	C576.765503,529.554260 578.676697,526.671631 580.523132,523.750366 
	C580.993958,523.912720 581.464783,524.075134 581.935547,524.237549 
	C582.954346,535.302490 583.944153,546.370178 584.998535,557.431763 
	C586.637634,574.626648 588.379150,591.811951 589.969421,609.011353 
	C591.712646,627.864380 593.031189,646.763184 595.178467,665.568604 
	C595.886658,671.770813 597.603699,678.302734 600.629517,683.689697 
	C605.015076,691.497437 611.004639,698.404785 616.317627,705.690674 
	C621.353271,712.596069 638.280945,718.388489 645.886292,716.390503 
	C645.886292,711.037170 646.298889,705.906067 645.799377,700.865356 
	C644.796753,690.747498 643.111084,680.698486 642.049683,670.585083 
	C640.829468,658.958252 640.095276,647.281006 638.940613,635.646423 
	C637.398682,620.109070 635.602966,604.597107 634.016235,589.064026 
	C632.912476,578.258850 631.974731,567.436584 630.966797,556.621643 
	C629.607239,542.034668 628.251465,527.447449 626.507446,512.007629 
M913.586548,541.912781 
	C914.099426,541.260437 914.612305,540.608154 915.898193,538.972656 
	C915.533936,543.764404 915.300964,547.279114 914.992798,550.787231 
	C914.361023,557.979309 913.879272,565.191589 912.987305,572.352173 
	C911.755249,582.242432 910.398254,591.362793 918.637939,600.064148 
	C924.412109,606.161743 929.990234,608.657532 937.766113,608.009460 
	C940.625916,607.771179 941.749756,606.660156 942.137085,603.479248 
	C943.357056,593.460205 944.740356,583.419067 946.874451,573.562683 
	C950.616272,556.281555 954.343140,538.954102 959.205139,521.969177 
	C965.946594,498.418396 973.974487,475.258759 984.453857,453.033356 
	C988.404602,444.654510 991.652283,435.893524 996.190979,427.854706 
	C1002.576538,416.544952 1009.601746,405.566376 1016.893433,394.812286 
	C1019.998291,390.233063 1022.442993,390.960938 1023.907654,396.512512 
	C1025.020508,400.730591 1026.037476,405.186127 1025.878906,409.491150 
	C1025.156128,429.124542 1023.903992,448.737701 1023.040771,468.366852 
	C1022.509155,480.455048 1022.132019,492.557892 1022.071106,504.656097 
	C1022.030396,512.751099 1022.525574,520.858521 1023.041138,528.943848 
	C1023.520996,536.468994 1024.125244,544.000610 1025.089478,551.475891 
	C1025.822632,557.159607 1032.738281,563.154907 1038.753418,563.990051 
	C1045.236816,564.890198 1048.281616,562.901123 1051.886475,555.375366 
	C1052.305664,554.500366 1052.627197,553.578186 1052.984375,552.674133 
	C1059.656616,535.788330 1065.598145,518.566833 1073.167847,502.093445 
	C1084.827026,476.720551 1098.622681,452.488251 1117.310059,431.440887 
	C1118.789429,429.774628 1121.604004,428.034271 1123.470215,428.338684 
	C1125.204956,428.621704 1126.650024,431.494202 1127.929810,433.421051 
	C1128.607178,434.440643 1128.861328,435.857819 1128.965332,437.123596 
	C1130.016479,449.902527 1131.059570,462.682770 1131.981934,475.471527 
	C1133.263916,493.243927 1137.544922,510.128632 1146.320312,525.765686 
	C1154.594727,540.509766 1166.723022,550.337891 1183.541382,552.818481 
	C1198.480103,555.021790 1212.214478,549.309998 1225.561523,543.453125 
	C1227.140137,542.760376 1227.680542,538.666199 1227.763550,536.118164 
	C1227.796021,535.120911 1225.330078,533.303162 1223.851440,533.127625 
	C1218.282959,532.466431 1212.655273,532.137024 1207.044312,532.059387 
	C1203.294556,532.007385 1199.347534,533.483093 1195.813965,532.736389 
	C1180.448975,529.489197 1170.648926,518.868896 1164.429932,505.457397 
	C1157.497559,490.506989 1155.935059,474.097565 1154.997559,457.750122 
	C1154.657349,451.820343 1154.494385,445.871338 1153.892090,439.967682 
	C1152.729370,428.571228 1151.383301,417.191956 1149.972290,405.823059 
	C1149.176147,399.408325 1149.190430,392.696655 1144.779541,387.305237 
	C1138.247070,379.320740 1125.446289,378.576324 1115.515015,386.066681 
	C1101.501343,396.636353 1090.906494,410.166962 1083.105591,425.775940 
	C1074.822998,442.349121 1067.014526,459.159485 1059.031250,475.881683 
	C1057.419800,479.257141 1055.952759,482.701599 1054.419067,486.114227 
	C1053.154907,484.918488 1053.021118,484.022461 1053.009155,483.124756 
	C1052.665283,457.195099 1052.317383,431.265472 1052.011475,405.335358 
	C1051.934814,398.836395 1052.261230,392.322510 1051.931396,385.839447 
	C1051.548340,378.309540 1051.376709,370.649506 1049.806152,363.326202 
	C1047.184082,351.098724 1039.981323,344.291626 1028.989258,346.358795 
	C1023.000488,347.485107 1017.097961,351.537994 1012.211792,355.554626 
	C1001.456909,364.395630 994.060669,376.156006 986.684570,387.819092 
	C976.395142,404.088837 967.829102,421.212067 960.914795,439.181427 
	C957.464478,448.148041 953.751099,457.013458 949.711609,467.028076 
	C949.293335,465.372833 949.026733,464.827820 949.038208,464.288666 
	C949.343811,449.858185 949.624207,435.426758 950.042603,420.999329 
	C950.156738,417.063171 950.603210,413.127991 951.064819,409.212158 
	C952.328552,398.491577 954.118042,387.812500 954.882324,377.058929 
	C955.727539,365.165649 955.333130,353.186646 956.093872,341.284332 
	C956.851562,329.429810 951.322021,323.872009 942.177917,321.044952 
	C932.101624,317.929626 926.719543,319.086334 926.910095,330.537476 
	C927.044678,338.626709 926.430786,346.734833 925.990295,354.825806 
	C925.048828,372.119507 923.957703,389.405121 923.014587,406.698761 
	C922.277100,420.222046 921.659973,433.751953 921.007507,447.279816 
	C919.996887,468.233643 919.139526,489.196686 917.850403,510.133270 
	C917.658508,513.250122 916.170715,516.893066 914.069519,519.176819 
	C906.741333,527.141907 899.226929,535.008850 891.125854,542.169373 
	C882.884338,549.453918 874.450134,556.978149 862.852112,558.559692 
	C853.309814,559.860840 843.184753,556.737915 839.665588,547.846619 
	C837.020752,541.164551 835.454407,533.687439 835.194885,526.499695 
	C834.461243,506.176910 834.773804,485.844910 837.941406,465.642914 
	C839.940674,452.891876 840.825195,439.951111 843.166138,427.272064 
	C846.674866,408.267761 850.970459,389.407074 855.038452,370.508392 
	C856.959351,361.584534 857.098877,361.443329 848.095459,359.977753 
	C829.621033,356.970551 811.898193,359.919861 794.959900,367.568420 
	C778.975464,374.786224 763.733093,383.361328 751.004517,395.606659 
	C741.029114,405.203186 731.005127,414.870514 722.123962,425.447784 
	C713.771790,435.395050 706.732239,446.469147 699.403320,457.243439 
	C692.730164,467.053864 686.008362,476.877136 680.102722,487.151489 
	C673.434204,498.752960 669.814636,511.557953 666.544250,524.560425 
	C662.701904,539.836914 662.035339,555.045654 664.008728,570.513123 
	C665.378540,581.249084 670.503784,589.119080 680.452576,594.242188 
	C689.750610,599.030090 698.649536,597.152832 707.453308,594.030457 
	C723.272888,588.419800 736.293030,578.149414 748.346069,566.899902 
	C757.266846,558.573853 765.023682,549.009216 773.416321,540.106873 
	C787.853455,524.792847 798.246826,506.589905 809.952637,489.321747 
	C810.568054,488.413910 811.384033,487.642090 812.989136,485.786987 
	C812.989136,488.981232 813.289551,490.698181 812.943726,492.273285 
	C808.366882,513.120239 809.026428,534.286987 809.047668,555.407715 
	C809.051086,558.827759 809.294189,562.343506 810.107727,565.647278 
	C811.943665,573.102722 814.172668,580.244080 821.115845,585.124512 
	C831.264038,592.257812 842.115112,590.620667 852.955383,588.462097 
	C866.232971,585.818176 876.996399,577.873291 887.342834,569.863098 
	C897.265869,562.180725 906.840454,553.815857 913.586548,541.912781 
M1191.952759,204.462784 
	C1190.825928,204.240753 1189.668335,204.118240 1188.576660,203.782181 
	C1161.552612,195.463943 1134.522705,187.368851 1106.872803,181.085251 
	C1076.590942,174.203506 1046.283081,167.575485 1015.303345,166.330048 
	C991.999512,165.393173 968.511902,164.409409 945.192444,167.921158 
	C929.012451,170.357773 912.860413,172.404099 896.936890,176.703018 
	C871.187073,183.654755 846.750122,193.780792 822.652222,204.843063 
	C805.171448,212.867661 789.047058,223.350143 773.248108,234.282730 
	C770.923706,235.891159 768.880249,237.905655 766.706848,239.732285 
	C767.010315,240.344513 767.313782,240.956726 767.617249,241.568954 
	C772.006714,240.257721 776.504089,239.224777 780.762207,237.574707 
	C788.546875,234.558044 796.028687,230.698929 803.920837,228.031311 
	C834.807678,217.591248 866.155945,208.778275 898.643555,205.049713 
	C917.933472,202.835846 937.321411,200.685486 956.701965,200.285858 
	C974.154480,199.925980 991.674377,201.759323 1009.131470,203.066528 
	C1021.245178,203.973618 1033.450195,204.852158 1045.355103,207.110748 
	C1070.558838,211.892349 1095.711914,217.071030 1120.657715,223.040237 
	C1139.557495,227.562698 1158.145142,233.422897 1176.798950,238.934067 
	C1206.745361,247.781570 1236.597778,256.947845 1266.555664,265.756073 
	C1285.686646,271.380981 1304.792969,277.201569 1324.173218,281.835144 
	C1342.921021,286.317474 1361.930664,289.854401 1380.966187,292.935638 
	C1395.700806,295.320679 1410.622681,296.796539 1425.520142,297.832153 
	C1434.060059,298.425842 1442.757690,297.746185 1451.312378,296.906342 
	C1464.692383,295.592712 1478.107422,294.198608 1491.331909,291.849274 
	C1508.167236,288.858521 1524.183960,282.867157 1539.326050,275.010864 
	C1561.010010,263.760529 1580.166870,248.784744 1598.560425,232.838028 
	C1600.781494,230.912460 1602.427246,228.323120 1604.339600,226.041473 
	C1604.002441,225.662521 1603.665161,225.283569 1603.328003,224.904617 
	C1599.361816,226.999985 1595.558594,229.518906 1591.401367,231.117493 
	C1573.250366,238.097198 1555.103882,245.116531 1536.753174,251.542740 
	C1512.934326,259.883759 1487.971191,261.985779 1463.027466,262.781250 
	C1447.189453,263.286346 1431.249512,262.107147 1415.418579,260.871826 
	C1401.854614,259.813385 1388.271973,258.194672 1374.894409,255.747986 
	C1358.510864,252.751511 1342.188110,249.174423 1326.097534,244.880264 
	C1299.571533,237.801178 1273.182861,230.180878 1246.871216,222.335785 
	C1228.681396,216.912262 1210.718872,210.726120 1191.952759,204.462784 
M1276.490601,571.010193 
	C1272.099121,574.639465 1270.274780,574.351685 1266.611084,570.235168 
	C1259.837402,562.624207 1258.467529,552.959229 1258.246948,543.738342 
	C1257.609375,517.102173 1257.761719,490.472870 1260.778320,463.866638 
	C1262.894043,445.206818 1262.927368,426.314697 1264.031494,407.534637 
	C1264.533325,399.000061 1265.724487,390.495911 1265.977417,381.959412 
	C1266.293701,371.283051 1266.340332,360.566437 1265.736206,349.910675 
	C1265.487061,345.516663 1262.828735,341.297241 1258.002808,340.080353 
	C1251.416016,338.419434 1244.698975,337.252106 1238.007935,336.037506 
	C1234.985840,335.488953 1233.715942,337.096344 1233.993286,340.086151 
	C1234.357178,344.011963 1234.905029,347.939819 1234.954102,351.872040 
	C1235.087524,362.557434 1235.000000,373.245605 1235.000000,383.932678 
	C1235.000000,392.289368 1235.097290,400.647461 1234.980347,409.002502 
	C1234.708618,428.429504 1234.367920,447.855713 1233.989014,467.280975 
	C1233.714233,481.375946 1233.208252,495.467590 1233.063354,509.563354 
	C1233.007690,514.988464 1233.895264,520.418457 1233.954468,525.850525 
	C1234.095703,538.846130 1233.630127,551.858398 1234.125977,564.836548 
	C1234.474976,573.967224 1234.969971,583.315247 1237.206421,592.106689 
	C1242.695679,613.684021 1260.884766,619.074097 1279.138916,612.467773 
	C1288.487061,609.084656 1293.004395,600.783569 1297.521118,593.426941 
	C1311.294067,570.994934 1323.922119,547.860107 1337.008423,525.006042 
	C1337.833984,523.564209 1338.768311,522.184692 1339.651978,520.776245 
	C1340.112183,520.881470 1340.572510,520.986694 1341.032715,521.091919 
	C1341.688354,527.505676 1342.946777,533.925964 1342.878296,540.332031 
	C1342.719116,555.234192 1346.208252,569.560303 1349.225220,583.928650 
	C1350.272217,588.915466 1353.284546,593.668701 1359.633179,594.007019 
	C1366.568726,594.376465 1373.524414,595.139709 1380.442505,594.900635 
	C1392.774170,594.474365 1403.874268,589.837402 1414.191895,583.338989 
	C1424.686035,576.729492 1433.707642,568.498413 1441.718384,558.959656 
	C1448.128174,551.327148 1452.330078,543.056824 1453.599854,532.719482 
	C1452.291382,533.153320 1451.417725,533.232544 1450.810181,533.676208 
	C1441.997192,540.110779 1433.339966,546.765503 1424.401245,553.018677 
	C1415.078857,559.540100 1405.690063,566.016968 1395.917480,571.817566 
	C1392.457153,573.871460 1388.506470,575.828491 1383.491577,574.321472 
	C1373.678711,571.372864 1369.303833,564.072998 1367.178345,555.255920 
	C1365.619385,548.789307 1365.275391,541.955383 1365.030151,535.261658 
	C1364.483765,520.343628 1363.579468,505.376709 1364.249146,490.493927 
	C1364.879761,476.474731 1367.315430,462.534851 1369.003418,448.565643 
	C1370.943115,432.512695 1373.015869,416.475128 1374.820312,400.407227 
	C1375.116211,397.772766 1374.262573,395.145203 1370.635254,394.984955 
	C1364.540894,394.715668 1358.433350,394.524628 1352.364014,393.954224 
	C1343.839722,393.153046 1341.563354,397.466095 1341.994873,404.212708 
	C1342.853271,417.630066 1342.066284,431.125671 1338.718506,443.980957 
	C1331.969971,469.895233 1322.699219,495.065033 1311.123657,519.227478 
	C1305.311768,531.359192 1298.214844,542.937256 1290.947754,554.284424 
	C1287.142212,560.226562 1281.713013,565.128784 1276.490601,571.010193 
M919.500488,252.000000 
	C935.165527,252.000000 950.831665,251.889145 966.495117,252.047043 
	C974.260254,252.125320 982.052307,252.371780 989.774841,253.127823 
	C999.852356,254.114365 1009.868408,255.718216 1019.919373,256.989319 
	C1030.953125,258.384674 1042.134644,259.019318 1053.004150,261.212494 
	C1070.328369,264.708069 1087.544312,268.854645 1104.629395,273.391235 
	C1126.714722,279.255585 1148.639038,285.729431 1170.607910,292.027039 
	C1185.547852,296.309662 1200.394897,300.923065 1215.375977,305.053375 
	C1230.535889,309.232910 1245.704834,313.484833 1261.064453,316.804382 
	C1275.062256,319.829529 1289.296997,321.806427 1303.472656,323.944275 
	C1313.976196,325.528290 1324.541992,326.722656 1335.099976,327.914459 
	C1342.603271,328.761444 1350.131104,329.736359 1357.663330,329.886200 
	C1365.913818,330.050262 1374.185791,329.397949 1382.438354,328.927734 
	C1383.708862,328.855347 1384.926392,327.850739 1386.168335,327.277252 
	C1380.231567,325.811462 1374.568115,325.900421 1369.125244,324.848297 
	C1355.262085,322.168457 1341.340942,319.555420 1327.729980,315.858612 
	C1307.091797,310.253174 1286.416504,304.548523 1266.261475,297.452667 
	C1232.937622,285.720551 1200.104126,272.602386 1166.889648,260.549042 
	C1148.465576,253.863037 1129.935303,247.209885 1111.007568,242.236664 
	C1086.675171,235.843384 1062.569214,228.061630 1037.066528,226.828125 
	C1023.822510,226.187546 1010.637573,224.321259 997.427185,222.995453 
	C994.660889,222.717819 991.906616,222.301376 989.135986,222.090347 
	C983.712891,221.677307 978.268311,220.938171 972.858215,221.115158 
	C965.818542,221.345459 958.803528,222.333389 951.778320,223.000015 
	C941.325562,223.991913 930.869690,224.952271 920.421509,225.989914 
	C900.773926,227.941177 881.546204,232.032730 862.667175,237.725739 
	C842.802979,243.715881 822.957214,249.776794 803.205139,256.123596 
	C797.996826,257.797180 793.164307,260.640259 788.159180,262.946350 
	C788.329285,263.399811 788.499329,263.853241 788.669434,264.306702 
	C803.448303,262.517914 818.223267,260.696289 833.007080,258.948944 
	C850.071716,256.931976 867.112976,254.623993 884.224182,253.126114 
	C895.595459,252.130676 907.071655,252.333542 919.500488,252.000000 
M963.000000,694.500977 
	C963.000366,707.161926 962.949341,719.823242 963.025818,732.483765 
	C963.057312,737.693115 965.497559,740.097229 970.230408,739.992493 
	C975.785156,739.869568 978.281555,737.346252 977.959656,731.944397 
	C977.832520,729.811523 977.143860,727.710022 977.040710,725.578247 
	C976.809265,720.795166 977.872375,719.881531 982.088623,722.130676 
	C991.132751,726.955261 999.984863,732.145264 1008.845642,737.305725 
	C1013.090271,739.777893 1017.793274,739.473083 1020.131409,736.268311 
	C1022.289124,733.310730 1020.971924,728.867249 1016.978088,726.009094 
	C1011.980896,722.432983 1006.927063,718.936035 1001.960632,715.449158 
	C1004.293274,714.300232 1006.724060,713.479797 1008.709534,712.043762 
	C1012.444336,709.342285 1016.870972,706.695312 1016.869019,701.439697 
	C1016.867493,697.299561 1016.852417,692.363831 1014.728271,689.202698 
	C1011.372559,684.208923 1006.942749,679.001648 1001.715515,676.404663 
	C992.215759,671.684998 981.521606,670.452942 970.805603,671.018494 
	C966.040771,671.270020 963.173889,674.165710 963.032715,679.009277 
	C962.892090,683.836365 963.000610,688.670654 963.000000,694.500977 
M1343.439087,727.231873 
	C1337.907837,723.321167 1332.376709,719.410522 1326.800537,715.468079 
	C1328.730835,714.551453 1330.674316,713.696655 1332.556274,712.723145 
	C1341.769409,707.957520 1345.003174,698.829285 1340.191406,689.743774 
	C1338.541138,686.627869 1335.827393,683.880676 1333.088867,681.570251 
	C1322.730835,672.831726 1310.315186,670.683838 1297.215698,670.990356 
	C1290.873291,671.138916 1288.030396,673.823669 1288.014771,680.102966 
	C1287.972046,697.269470 1287.856201,714.438660 1288.156006,731.600037 
	C1288.200684,734.155640 1289.720947,737.957275 1291.657104,738.881531 
	C1294.009033,740.004395 1298.394897,739.722473 1300.293091,738.130798 
	C1302.161865,736.563721 1302.390869,732.631104 1302.650146,729.676025 
	C1302.884521,727.005615 1302.187744,724.253540 1301.804077,720.613220 
	C1304.355957,721.326843 1306.024780,721.474915 1307.361938,722.218933 
	C1316.181519,727.126465 1324.997314,732.048462 1333.669434,737.209351 
	C1337.398560,739.428589 1340.993164,739.982605 1344.233643,737.052307 
	C1347.456177,734.138245 1346.298706,730.769043 1343.439087,727.231873 
M1093.123413,676.434509 
	C1088.195312,680.009949 1082.877075,683.162476 1078.433472,687.262939 
	C1072.242676,692.975525 1074.071533,702.305359 1081.380127,706.220215 
	C1087.854248,709.687988 1094.665527,711.066895 1101.957275,711.082153 
	C1105.889526,711.090393 1109.950928,711.472412 1113.718262,712.527649 
	C1118.469604,713.858582 1119.213013,718.243042 1115.727051,721.771057 
	C1107.028687,730.574341 1089.135254,730.338440 1080.241577,721.943054 
	C1078.346680,720.154358 1074.103149,719.961365 1071.215698,720.500610 
	C1069.817139,720.761780 1068.324585,724.359924 1068.145264,726.551331 
	C1067.700317,731.987915 1074.620117,738.624023 1081.554199,739.923645 
	C1095.280029,742.496155 1108.693970,741.119324 1121.572998,735.890625 
	C1128.018433,733.273804 1132.804443,728.316345 1133.802979,721.277283 
	C1134.941895,713.248413 1130.489258,705.811157 1122.736450,702.528564 
	C1118.277710,700.640686 1113.275635,699.898804 1108.445068,699.065002 
	C1103.588257,698.226685 1098.616943,698.058777 1093.749634,697.266602 
	C1092.570190,697.074585 1090.670288,695.501404 1090.740356,694.708496 
	C1090.867310,693.276184 1091.964478,691.087952 1093.121338,690.733704 
	C1098.213135,689.174988 1103.419556,687.659241 1108.686157,687.116638 
	C1112.358521,686.738403 1116.256104,688.604370 1119.939575,688.258484 
	C1122.623291,688.006592 1126.164795,686.419128 1127.465454,684.291138 
	C1129.569824,680.848389 1126.633179,678.440735 1123.408203,677.222961 
	C1113.692261,673.554016 1103.839478,672.404541 1093.123413,676.434509 
z"/>
<path fill="#0074AB" opacity="1.000000" stroke="none" 
	d="
M4.092327,387.452942 
	C4.775108,386.068024 5.818572,385.196930 5.933619,384.216827 
	C8.040180,366.270721 9.090462,348.141235 12.288419,330.397339 
	C16.487442,307.098969 22.160759,284.055511 27.571146,260.989471 
	C32.566444,239.693024 41.347603,219.734909 50.019012,199.743652 
	C59.384369,178.152573 69.958305,157.224213 84.008224,138.285080 
	C94.078995,124.709785 104.354195,111.236816 115.341171,98.405777 
	C124.509560,87.698547 134.114410,77.125465 144.850601,68.062111 
	C157.717911,57.199688 171.367584,46.948914 185.834869,38.387383 
	C199.725723,30.166986 214.992584,24.211540 229.845001,17.694294 
	C243.002701,11.920692 256.629852,11.695963 270.100128,16.637836 
	C278.671265,19.782354 287.444244,22.827869 295.302185,27.350445 
	C305.021606,32.944378 305.840027,45.772224 297.414215,50.677345 
	C293.816681,52.771667 289.569794,54.153973 285.445831,54.873775 
	C262.175690,58.935410 239.896698,65.898163 219.235031,77.427849 
	C204.322708,85.749275 189.854156,94.797043 177.107529,106.346664 
	C169.161575,113.546448 160.469818,119.995163 153.040695,127.678207 
	C137.915665,143.320236 125.182877,160.877762 114.076927,179.610855 
	C103.074593,198.169174 94.097862,217.638611 87.931755,238.315262 
	C80.885185,261.944305 73.907753,285.600739 67.418922,309.386749 
	C63.765461,322.779205 60.799824,336.389160 58.217495,350.032318 
	C56.754524,357.761627 56.848206,365.773682 55.961559,373.626892 
	C54.820824,383.730499 52.676826,393.774261 52.281406,403.895233 
	C51.776936,416.807495 52.259567,429.788452 52.941658,442.706818 
	C53.434433,452.039734 54.448040,461.408936 56.110928,470.602478 
	C59.163399,487.478577 64.155197,503.630371 74.803589,517.654114 
	C83.049835,528.514343 94.162331,534.492310 106.563988,539.046448 
	C121.126602,544.394104 135.425110,541.093811 149.817627,538.599792 
	C165.412704,535.897400 178.740662,528.118713 191.197296,519.053772 
	C202.610657,510.748077 213.514114,501.659790 224.045120,492.248199 
	C233.284058,483.991333 242.523376,475.475830 250.268478,465.869965 
	C260.735626,452.888031 270.281189,439.078461 279.275299,425.018311 
	C287.485291,412.183960 294.084625,398.325500 302.136719,385.380432 
	C304.780609,381.129974 309.384186,377.749176 313.737793,374.990509 
	C320.870148,370.471069 327.846100,365.251129 337.198547,365.922333 
	C344.344452,366.435181 348.698914,371.926239 346.576538,378.864380 
	C340.644104,398.257782 331.762970,416.385925 321.545288,433.772644 
	C313.335663,447.742462 304.122467,461.137360 295.019867,474.560364 
	C291.346130,479.977814 286.987732,484.978119 282.579041,489.840149 
	C273.454651,499.902893 264.513885,510.192627 254.698837,519.551270 
	C245.188171,528.619629 234.505081,536.444275 224.643265,545.161621 
	C208.852570,559.119873 190.364777,568.892029 172.059937,578.761230 
	C157.540359,586.589539 142.306198,593.953796 125.703857,595.693604 
	C106.216339,597.735657 87.188194,594.468750 69.966919,584.354431 
	C55.733433,575.994873 43.248894,565.469299 34.759613,551.109985 
	C23.450748,531.981384 14.215863,511.863403 10.186412,489.831329 
	C8.475890,480.478607 8.062583,470.891327 6.984086,461.419250 
	C6.401571,456.303223 5.659600,451.205292 4.576672,446.054688 
	C4.116136,426.645477 4.068491,407.280762 4.092327,387.452942 
z"/>
<path fill="#F9D166" opacity="1.000000" stroke="none" 
	d="
M1298.593140,6.919711 
	C1318.577881,10.643657 1337.952637,15.022112 1355.545654,24.923096 
	C1370.365479,33.263325 1384.059082,42.976486 1396.538818,54.743168 
	C1414.937866,72.090889 1428.646973,92.501869 1439.479614,115.044502 
	C1445.612183,127.806404 1449.572510,141.336746 1450.914307,155.445099 
	C1452.005249,166.915054 1452.675537,178.450134 1452.926392,189.969528 
	C1453.399048,211.690475 1447.292603,231.999374 1438.611328,252.716019 
	C1428.726929,251.460709 1418.760864,250.739380 1409.024048,248.841431 
	C1390.605347,245.251129 1372.296631,241.080475 1353.986450,236.954575 
	C1346.277344,235.217422 1338.671997,233.013153 1331.043213,230.933838 
	C1330.074097,230.669724 1329.249756,229.874023 1328.358398,229.324585 
	C1329.228882,228.539734 1329.969360,227.398895 1330.990479,227.026169 
	C1339.450684,223.937759 1348.203003,221.532593 1356.409790,217.890396 
	C1374.086060,210.045639 1391.036255,200.895615 1405.347656,186.244461 
	C1369.370117,184.466858 1335.771484,189.932266 1303.367188,206.345932 
	C1303.764648,205.208527 1303.854248,203.778809 1304.610840,202.982513 
	C1308.626343,198.755829 1312.813232,194.692200 1316.933716,190.564850 
	C1337.466675,169.997757 1355.950439,147.688049 1370.492554,122.542213 
	C1377.894043,109.743668 1383.014893,95.607101 1388.904907,81.962387 
	C1391.389404,76.207039 1393.220093,70.167709 1395.296875,64.239555 
	C1395.709961,63.060143 1395.890625,61.799305 1396.181641,60.562370 
	C1392.563232,60.035522 1383.266968,64.991646 1382.050171,67.835487 
	C1378.987915,74.992310 1372.199707,78.282936 1366.578613,82.788155 
	C1363.251709,85.454689 1359.762451,87.954391 1356.675415,90.876793 
	C1351.232910,96.028725 1345.917969,101.329079 1340.770508,106.776001 
	C1327.062256,121.281769 1315.513550,137.407578 1305.730713,154.771439 
	C1301.054199,163.071991 1296.901489,171.666351 1292.399170,180.067322 
	C1291.557861,181.636948 1290.182861,182.920410 1288.467896,184.084366 
	C1303.212402,125.444122 1301.245728,67.549126 1282.994629,10.059044 
	C1262.266113,66.143166 1258.184692,123.719704 1267.863403,182.769226 
	C1256.965698,157.436249 1244.270630,133.446259 1226.762207,112.230682 
	C1209.036743,90.751945 1189.997925,70.645859 1167.439819,53.983894 
	C1171.981445,79.817802 1181.369995,103.734177 1193.312988,126.728439 
	C1205.356323,149.915543 1220.599121,170.875137 1238.489990,190.441116 
	C1195.552124,179.110336 1153.213623,167.937744 1110.187256,156.583618 
	C1108.314209,147.479279 1112.227905,138.026535 1114.982544,128.360641 
	C1121.056763,107.046448 1131.202881,87.760735 1145.056641,70.641228 
	C1161.944336,49.772655 1181.929565,32.441219 1207.084717,22.041718 
	C1225.524292,14.418530 1244.136230,7.182053 1264.751465,6.505882 
	C1274.266357,6.093710 1283.568848,5.996929 1292.870605,6.046132 
	C1294.638428,6.055482 1296.403198,6.642800 1298.593140,6.919711 
z"/>
<path fill="#1AB9DA" opacity="1.000000" stroke="none" 
	d="
M1679.903931,494.591980 
	C1675.313843,498.110229 1670.871582,501.340210 1666.253052,504.294647 
	C1653.518677,512.440796 1640.716431,520.481140 1627.929321,528.544922 
	C1619.310303,533.980286 1610.671631,539.384460 1602.735107,544.367249 
	C1607.790283,552.453918 1613.424316,560.108826 1617.594849,568.491760 
	C1622.507446,578.365784 1624.332520,589.342834 1619.734131,599.725220 
	C1616.759766,606.440918 1611.756958,612.355774 1607.154175,618.230774 
	C1599.609131,627.860901 1590.805176,636.238342 1580.524780,643.001587 
	C1566.066895,652.513000 1550.992065,660.824463 1534.036011,664.842407 
	C1520.244995,668.110291 1499.625732,660.120483 1492.828491,647.975525 
	C1486.125122,635.998718 1487.507202,623.606750 1494.715820,611.689453 
	C1504.768677,595.069397 1518.580933,582.208130 1533.811279,570.549072 
	C1540.708984,565.268860 1547.166870,559.414490 1554.517334,553.238220 
	C1548.551880,548.686462 1543.142822,543.963928 1537.170776,540.114807 
	C1519.689209,528.847168 1501.991577,517.913940 1484.362671,506.875458 
	C1468.035645,496.652283 1453.015747,484.751251 1439.591187,470.968628 
	C1430.889526,462.035034 1426.497192,451.254211 1425.802368,438.447418 
	C1424.890381,421.638641 1429.735840,407.249573 1440.129028,394.317993 
	C1450.160522,381.836182 1462.104980,372.261749 1476.987671,365.736725 
	C1491.252319,359.482574 1505.897339,357.378021 1521.062378,358.101654 
	C1536.578735,358.842041 1551.638184,361.810883 1566.012939,368.324554 
	C1575.680176,372.705109 1585.044067,377.524841 1591.807251,385.618988 
	C1597.705811,392.678528 1602.245239,400.891052 1607.146973,408.742767 
	C1607.722168,409.664093 1607.256836,412.101746 1606.416382,412.791748 
	C1605.607910,413.455353 1603.413086,413.236237 1602.297363,412.591522 
	C1593.855957,407.713379 1585.777100,402.150848 1577.110107,397.733612 
	C1564.490234,391.301849 1551.099976,387.383881 1536.643799,387.919830 
	C1531.900269,388.095703 1527.085205,386.793884 1522.367920,387.117371 
	C1513.732056,387.709595 1505.076172,388.614471 1496.552368,390.099487 
	C1481.461182,392.728638 1468.838867,400.038055 1458.819458,411.691925 
	C1454.210327,417.053040 1453.062988,423.240997 1454.511963,430.069672 
	C1458.751709,450.048157 1470.505127,464.634003 1486.720825,476.421387 
	C1502.962280,488.227356 1519.767822,499.000458 1537.737183,507.983765 
	C1552.110840,515.169495 1566.654663,522.101685 1580.503174,530.205933 
	C1585.628662,533.205444 1588.956787,533.399414 1593.884521,530.716370 
	C1612.045410,520.828613 1630.315063,511.125061 1648.767822,501.795593 
	C1657.142456,497.561401 1666.025635,494.325562 1674.721313,490.741669 
	C1676.034668,490.200378 1677.584229,490.231873 1679.430420,489.996277 
	C1679.881470,491.388702 1679.926392,492.783356 1679.903931,494.591980 
M1546.002319,588.497070 
	C1540.438599,594.395142 1534.355591,599.896667 1529.460571,606.305542 
	C1524.784912,612.427612 1520.844482,619.255737 1517.528809,626.224426 
	C1515.071289,631.389404 1518.899170,638.114563 1524.098267,638.834717 
	C1527.098022,639.250244 1530.394653,638.938232 1533.333618,638.134399 
	C1546.531860,634.524597 1558.816650,628.995239 1568.477173,618.956726 
	C1574.913574,612.268616 1581.263672,605.449036 1587.074707,598.223694 
	C1591.378052,592.873169 1590.777588,587.621582 1586.550903,582.207031 
	C1583.463989,578.252625 1579.318481,575.142944 1575.980347,571.360596 
	C1573.282959,568.304138 1570.672363,568.446838 1567.853394,570.698364 
	C1560.696777,576.414490 1553.615234,582.224670 1546.002319,588.497070 
z"/>
<path fill="#171717" opacity="1.000000" stroke="none" 
	d="
M747.028687,684.893127 
	C749.126282,687.790161 750.926392,690.972107 753.377075,693.531006 
	C760.842834,701.326355 768.530640,708.910706 776.213562,716.494507 
	C777.220337,717.488281 778.703064,717.999878 780.656189,719.136902 
	C780.794250,717.052185 781.019165,715.496399 780.980591,713.947266 
	C780.682495,701.999634 780.483826,690.046082 779.919861,678.110168 
	C779.717468,673.826172 781.172546,671.626770 785.343384,670.719543 
	C789.568298,669.800537 792.014221,672.373962 792.976257,675.399536 
	C794.558044,680.374207 795.673767,685.672241 795.870300,690.876099 
	C796.291016,702.018066 796.076538,713.187927 795.948669,724.344360 
	C795.912842,727.466431 795.440735,730.612854 794.870667,733.692932 
	C793.913940,738.861511 788.621643,742.109314 784.009094,739.725098 
	C779.519104,737.404114 775.158142,734.407349 771.556702,730.875061 
	C761.628174,721.137146 752.133972,710.956848 742.448181,700.970703 
	C741.114136,699.595276 739.667786,698.328613 737.108093,695.910950 
	C737.108093,705.848938 736.313721,714.332458 737.345154,722.587891 
	C738.264221,729.943909 737.569214,736.298157 733.046631,742.514038 
	C730.960876,742.919250 728.905945,742.975098 726.417603,742.947144 
	C721.281189,738.082092 722.166809,732.457031 722.502563,726.361389 
	C723.168335,714.273315 722.606567,702.115295 722.478088,689.986938 
	C722.425354,685.010193 721.390076,679.869751 722.382263,675.134949 
	C722.828186,673.006775 726.995361,671.312073 729.780640,670.165222 
	C731.190430,669.584778 733.282166,670.660522 735.545044,671.339966 
	C739.692566,676.092590 743.360657,680.492859 747.028687,684.893127 
z"/>
<path fill="#171717" opacity="1.000000" stroke="none" 
	d="
M1194.447266,742.947266 
	C1193.200439,742.170105 1192.523804,741.251648 1191.615723,740.819885 
	C1185.648804,737.982971 1182.447998,732.398010 1182.664673,725.668091 
	C1183.187622,709.424255 1183.600586,693.176575 1183.981812,676.928650 
	C1184.129517,670.633484 1186.894775,668.587463 1193.164551,669.438965 
	C1196.508179,669.893005 1200.015625,668.976807 1203.450806,668.955078 
	C1212.360352,668.898621 1221.293579,668.647278 1230.168335,669.225464 
	C1233.141113,669.419128 1236.507202,671.357361 1238.628296,673.535522 
	C1239.677490,674.613037 1239.140747,678.861023 1237.822876,680.206787 
	C1236.168579,681.896118 1232.596313,683.334473 1230.513672,682.701843 
	C1220.262207,679.588257 1210.129883,681.151306 1199.423584,682.293701 
	C1199.052856,687.628418 1198.682739,692.953918 1198.270508,698.886353 
	C1204.584961,698.451965 1210.619873,697.985657 1216.661621,697.637634 
	C1221.460693,697.361084 1226.313232,696.783813 1231.048706,697.262817 
	C1232.822998,697.442200 1235.485718,700.108154 1235.668091,701.856689 
	C1235.887573,703.962952 1234.376465,706.806274 1232.713867,708.377258 
	C1231.367554,709.649414 1228.709595,709.788879 1226.596680,709.950500 
	C1217.031128,710.682251 1207.452515,711.243469 1197.808472,711.870667 
	C1197.465698,713.051331 1197.090942,713.802673 1197.047119,714.572815 
	C1196.180664,729.806519 1196.368286,730.066589 1211.342041,729.956665 
	C1215.466797,729.926392 1219.583130,729.285400 1223.711182,729.077576 
	C1227.684814,728.877502 1231.974854,728.242065 1234.536377,732.358948 
	C1236.995239,736.310913 1234.019897,739.176208 1232.045654,742.518738 
	C1219.647339,742.919312 1207.278931,742.975220 1194.447266,742.947266 
z"/>
<path fill="#171717" opacity="1.000000" stroke="none" 
	d="
M871.433289,742.947144 
	C869.682678,742.195740 868.446594,741.163635 867.069824,740.917114 
	C854.297974,738.630371 846.508057,726.642334 846.086609,715.386230 
	C845.689331,704.774841 845.877258,694.135010 846.038574,683.511230 
	C846.181580,674.093628 850.712280,671.209351 859.545044,675.362915 
	C860.329468,677.940918 860.672913,680.053223 861.016357,682.165466 
	C860.682861,689.287781 859.720032,696.452820 860.200500,703.519775 
	C860.642578,710.022095 861.960083,716.660645 864.148865,722.790405 
	C866.117859,728.304810 871.604370,729.703308 877.084351,728.917236 
	C882.670349,728.115967 887.434204,725.718079 890.106323,720.193237 
	C894.627686,710.845093 895.451233,700.808777 896.018738,690.686951 
	C896.240723,686.727905 896.365417,682.723511 897.087891,678.842773 
	C897.959656,674.160583 901.592529,671.971130 906.398621,673.120056 
	C910.644592,674.135193 911.710205,676.960388 911.214355,681.379883 
	C910.365479,688.945557 910.782532,696.655579 909.894104,704.213928 
	C908.670959,714.619812 904.994873,724.480225 897.885193,732.138550 
	C894.139282,736.173584 888.128479,738.105835 883.141235,740.989014 
	C882.471985,741.375854 881.807251,741.770691 881.078247,742.512573 
	C877.971558,742.919250 874.927002,742.975037 871.433289,742.947144 
z"/>
<path fill="#171717" opacity="1.000000" stroke="none" 
	d="
M1414.358521,742.947021 
	C1413.667480,742.320007 1413.479004,741.476929 1413.014771,741.278381 
	C1406.099121,738.320557 1405.442627,736.856079 1408.926025,730.269897 
	C1411.243408,725.888184 1413.928345,721.700867 1416.612915,717.148315 
	C1408.456055,705.835327 1400.228516,694.414856 1391.988770,683.003296 
	C1389.890137,680.096558 1388.297852,676.491638 1391.655640,674.230469 
	C1394.168091,672.538391 1398.702148,671.477112 1401.139648,672.640930 
	C1404.234619,674.118652 1406.353271,677.970886 1408.479370,681.081970 
	C1413.409058,688.295532 1418.090210,695.678955 1423.559692,704.045166 
	C1426.920532,698.014771 1429.755127,693.101990 1432.418213,688.097900 
	C1434.740967,683.733337 1436.682373,679.157471 1439.147949,674.880005 
	C1440.949341,671.754822 1447.278809,670.695740 1450.206055,672.869507 
	C1453.800537,675.538696 1453.518799,678.550415 1451.456177,682.421082 
	C1445.431519,693.727661 1440.283447,705.514954 1433.984131,716.657288 
	C1428.973511,725.520142 1422.775146,733.711487 1417.060059,742.532166 
	C1416.255005,742.919128 1415.494019,742.974915 1414.358521,742.947021 
z"/>
<path fill="#0074AB" opacity="1.000000" stroke="none" 
	d="
M626.700806,512.433960 
	C628.251465,527.447449 629.607239,542.034668 630.966797,556.621643 
	C631.974731,567.436584 632.912476,578.258850 634.016235,589.064026 
	C635.602966,604.597107 637.398682,620.109070 638.940613,635.646423 
	C640.095276,647.281006 640.829468,658.958252 642.049683,670.585083 
	C643.111084,680.698486 644.796753,690.747498 645.799377,700.865356 
	C646.298889,705.906067 645.886292,711.037170 645.886292,716.390503 
	C638.280945,718.388489 621.353271,712.596069 616.317627,705.690674 
	C611.004639,698.404785 605.015076,691.497437 600.629517,683.689697 
	C597.603699,678.302734 595.886658,671.770813 595.178467,665.568604 
	C593.031189,646.763184 591.712646,627.864380 589.969421,609.011353 
	C588.379150,591.811951 586.637634,574.626648 584.998535,557.431763 
	C583.944153,546.370178 582.954346,535.302490 581.935547,524.237549 
	C581.464783,524.075134 580.993958,523.912720 580.523132,523.750366 
	C578.676697,526.671631 576.765503,529.554260 574.994202,532.520447 
	C561.931580,554.394836 543.465088,570.663452 520.692505,581.301636 
	C507.787262,587.330261 493.886292,591.796753 478.769073,587.181030 
	C463.731323,582.589661 456.812927,571.588074 455.288177,557.499207 
	C453.686676,542.700928 454.294159,527.659668 454.051514,512.722717 
	C454.017212,510.609283 454.635437,508.485229 454.951660,506.366089 
	C454.509949,506.186676 454.068237,506.007294 453.626556,505.827881 
	C450.883240,509.950256 448.230286,514.136230 445.380981,518.184021 
	C432.983185,535.796326 419.263519,552.274414 402.494690,565.917236 
	C393.087067,573.571106 383.917847,581.979980 373.347595,587.627380 
	C359.765930,594.883728 344.870453,600.503174 329.334351,592.031006 
	C318.908661,586.345581 312.140717,577.192932 310.203491,565.741821 
	C306.887085,546.138184 309.563141,526.806702 314.580841,507.575714 
	C320.811127,483.697327 334.023193,463.721863 347.646515,443.769989 
	C358.609436,427.714355 370.445801,412.450043 383.370514,397.890930 
	C399.031403,380.249695 417.131592,366.310638 438.238464,355.817841 
	C457.701447,346.142273 478.122589,342.608185 499.542877,344.104614 
	C505.007690,344.486359 510.388458,346.070435 516.746826,347.280853 
	C515.579346,353.595276 514.587097,359.363922 513.438660,365.101318 
	C509.330322,385.625519 504.606842,406.046387 501.200928,426.685364 
	C498.343079,444.003265 496.822327,461.553101 495.050934,479.034790 
	C494.019989,489.209045 492.836212,499.484528 493.245087,509.653198 
	C493.613098,518.805725 493.682892,528.425903 498.938782,536.674683 
	C502.725525,542.617798 509.722076,544.617493 516.241943,542.353638 
	C527.062622,538.596558 536.109436,531.962830 544.090210,524.178284 
	C554.998352,513.538208 565.004456,501.979218 575.600281,491.010223 
	C579.573914,486.896698 577.134766,482.717651 576.520264,477.191742 
	C574.492004,478.757446 572.979736,479.906311 571.487244,481.080383 
	C566.655212,484.881592 562.206970,489.365875 556.906860,492.327057 
	C550.407166,495.958435 543.753723,491.559540 544.180115,483.918915 
	C544.522278,477.787872 546.757263,471.787964 547.623962,465.655182 
	C549.274597,453.974976 558.232056,446.296478 563.213257,436.443756 
	C569.124878,424.750549 574.448547,413.162567 574.073914,399.576385 
	C573.464661,377.479584 573.137695,355.370178 573.070557,333.264984 
	C573.027710,319.160858 573.665649,305.054626 574.002930,290.949463 
	C574.332214,277.177399 574.579346,263.402679 575.021851,249.634247 
	C575.601868,231.586609 576.242371,213.539734 577.043884,195.500839 
	C577.505493,185.113098 578.083557,174.717850 579.061462,164.368744 
	C580.467957,149.485153 582.338684,134.646042 583.907776,119.777023 
	C584.719910,112.081474 585.104248,104.337532 586.036499,96.658516 
	C589.077576,71.610947 597.005798,48.504753 617.470398,32.376671 
	C634.180786,19.207258 652.419983,17.250374 671.625916,32.176834 
	C684.151245,41.911282 690.680359,55.372147 693.877014,70.469948 
	C696.990479,85.174904 699.096252,100.108147 697.913086,115.179703 
	C696.652771,131.236115 694.959900,147.269516 693.007141,163.258163 
	C689.848877,189.117981 684.943970,214.656708 678.029358,239.799835 
	C672.830139,258.705780 668.122009,277.751923 662.631348,296.571136 
	C657.318420,314.781403 651.535217,332.865356 645.506104,350.853119 
	C637.446838,374.897797 628.720398,398.720764 620.835571,422.820557 
	C619.236023,427.709656 619.696899,433.424500 619.931030,438.726746 
	C620.294067,446.946442 621.253967,455.140991 622.004700,463.342133 
	C623.489685,479.565430 625.004761,495.785950 626.700806,512.433960 
M621.117249,138.745651 
	C619.747253,150.321381 618.041382,161.869781 617.096680,173.480103 
	C616.038513,186.485306 615.450989,199.539917 615.053711,212.585068 
	C614.507935,230.505432 614.234619,248.436005 614.031677,266.364319 
	C613.873291,280.352356 614.033936,294.343781 613.963623,308.333252 
	C613.953003,310.446075 613.173828,312.566284 613.246521,314.665863 
	C613.377502,318.446106 611.459473,322.671326 615.507629,326.910217 
	C620.523438,309.302979 625.576843,292.754242 629.915527,276.020233 
	C634.915649,256.735443 639.418640,237.317780 643.880432,217.898758 
	C646.807922,205.157944 649.541748,192.360016 651.876892,179.499542 
	C653.923340,168.228210 655.370178,156.844635 656.936584,145.490601 
	C658.080017,137.202057 659.686401,128.893951 659.841370,120.571381 
	C660.094238,106.986557 659.596680,93.368042 658.838501,79.795998 
	C658.607666,75.664368 658.663513,70.537651 653.994751,68.130226 
	C648.852173,65.478554 643.370850,67.075165 640.373108,72.421013 
	C637.185059,78.106377 633.706543,83.933144 632.113220,90.148911 
	C628.062256,105.952400 624.993408,122.007652 621.117249,138.745651 
M398.011902,442.474274 
	C397.311340,443.186218 396.506592,443.822357 395.925537,444.621216 
	C383.366241,461.888580 371.710266,479.725342 362.981903,499.278290 
	C356.828918,513.062012 352.882843,527.395447 353.974030,542.739990 
	C354.153595,545.264893 354.312103,548.148438 357.741089,546.523560 
	C362.753143,544.148438 367.998993,541.713074 372.120422,538.125916 
	C381.054016,530.350525 389.497559,521.986328 397.829010,513.554138 
	C403.034515,508.285706 408.070526,502.752380 412.487396,496.820312 
	C426.103088,478.533722 439.017853,459.676758 447.617798,438.466400 
	C454.072144,422.547974 459.014191,406.016327 464.629547,389.757660 
	C463.968353,389.188690 463.307190,388.619690 462.646027,388.050720 
	C458.294525,390.340363 453.709137,392.277344 449.632477,394.981262 
	C432.901245,406.078339 418.070435,419.430359 404.440643,434.123932 
	C402.225098,436.512421 400.474548,439.332306 398.011902,442.474274 
z"/>
<path fill="#1AB9DA" opacity="1.000000" stroke="none" 
	d="
M913.336609,542.210449 
	C906.840454,553.815857 897.265869,562.180725 887.342834,569.863098 
	C876.996399,577.873291 866.232971,585.818176 852.955383,588.462097 
	C842.115112,590.620667 831.264038,592.257812 821.115845,585.124512 
	C814.172668,580.244080 811.943665,573.102722 810.107727,565.647278 
	C809.294189,562.343506 809.051086,558.827759 809.047668,555.407715 
	C809.026428,534.286987 808.366882,513.120239 812.943726,492.273285 
	C813.289551,490.698181 812.989136,488.981232 812.989136,485.786987 
	C811.384033,487.642090 810.568054,488.413910 809.952637,489.321747 
	C798.246826,506.589905 787.853455,524.792847 773.416321,540.106873 
	C765.023682,549.009216 757.266846,558.573853 748.346069,566.899902 
	C736.293030,578.149414 723.272888,588.419800 707.453308,594.030457 
	C698.649536,597.152832 689.750610,599.030090 680.452576,594.242188 
	C670.503784,589.119080 665.378540,581.249084 664.008728,570.513123 
	C662.035339,555.045654 662.701904,539.836914 666.544250,524.560425 
	C669.814636,511.557953 673.434204,498.752960 680.102722,487.151489 
	C686.008362,476.877136 692.730164,467.053864 699.403320,457.243439 
	C706.732239,446.469147 713.771790,435.395050 722.123962,425.447784 
	C731.005127,414.870514 741.029114,405.203186 751.004517,395.606659 
	C763.733093,383.361328 778.975464,374.786224 794.959900,367.568420 
	C811.898193,359.919861 829.621033,356.970551 848.095459,359.977753 
	C857.098877,361.443329 856.959351,361.584534 855.038452,370.508392 
	C850.970459,389.407074 846.674866,408.267761 843.166138,427.272064 
	C840.825195,439.951111 839.940674,452.891876 837.941406,465.642914 
	C834.773804,485.844910 834.461243,506.176910 835.194885,526.499695 
	C835.454407,533.687439 837.020752,541.164551 839.665588,547.846619 
	C843.184753,556.737915 853.309814,559.860840 862.852112,558.559692 
	C874.450134,556.978149 882.884338,549.453918 891.125854,542.169373 
	C899.226929,535.008850 906.741333,527.141907 914.069519,519.176819 
	C916.170715,516.893066 917.658508,513.250122 917.850403,510.133270 
	C919.139526,489.196686 919.996887,468.233643 921.007507,447.279816 
	C921.659973,433.751953 922.277100,420.222046 923.014587,406.698761 
	C923.957703,389.405121 925.048828,372.119507 925.990295,354.825806 
	C926.430786,346.734833 927.044678,338.626709 926.910095,330.537476 
	C926.719543,319.086334 932.101624,317.929626 942.177917,321.044952 
	C951.322021,323.872009 956.851562,329.429810 956.093872,341.284332 
	C955.333130,353.186646 955.727539,365.165649 954.882324,377.058929 
	C954.118042,387.812500 952.328552,398.491577 951.064819,409.212158 
	C950.603210,413.127991 950.156738,417.063171 950.042603,420.999329 
	C949.624207,435.426758 949.343811,449.858185 949.038208,464.288666 
	C949.026733,464.827820 949.293335,465.372833 949.711609,467.028076 
	C953.751099,457.013458 957.464478,448.148041 960.914795,439.181427 
	C967.829102,421.212067 976.395142,404.088837 986.684570,387.819092 
	C994.060669,376.156006 1001.456909,364.395630 1012.211792,355.554626 
	C1017.097961,351.537994 1023.000488,347.485107 1028.989258,346.358795 
	C1039.981323,344.291626 1047.184082,351.098724 1049.806152,363.326202 
	C1051.376709,370.649506 1051.548340,378.309540 1051.931396,385.839447 
	C1052.261230,392.322510 1051.934814,398.836395 1052.011475,405.335358 
	C1052.317383,431.265472 1052.665283,457.195099 1053.009155,483.124756 
	C1053.021118,484.022461 1053.154907,484.918488 1054.419067,486.114227 
	C1055.952759,482.701599 1057.419800,479.257141 1059.031250,475.881683 
	C1067.014526,459.159485 1074.822998,442.349121 1083.105591,425.775940 
	C1090.906494,410.166962 1101.501343,396.636353 1115.515015,386.066681 
	C1125.446289,378.576324 1138.247070,379.320740 1144.779541,387.305237 
	C1149.190430,392.696655 1149.176147,399.408325 1149.972290,405.823059 
	C1151.383301,417.191956 1152.729370,428.571228 1153.892090,439.967682 
	C1154.494385,445.871338 1154.657349,451.820343 1154.997559,457.750122 
	C1155.935059,474.097565 1157.497559,490.506989 1164.429932,505.457397 
	C1170.648926,518.868896 1180.448975,529.489197 1195.813965,532.736389 
	C1199.347534,533.483093 1203.294556,532.007385 1207.044312,532.059387 
	C1212.655273,532.137024 1218.282959,532.466431 1223.851440,533.127625 
	C1225.330078,533.303162 1227.796021,535.120911 1227.763550,536.118164 
	C1227.680542,538.666199 1227.140137,542.760376 1225.561523,543.453125 
	C1212.214478,549.309998 1198.480103,555.021790 1183.541382,552.818481 
	C1166.723022,550.337891 1154.594727,540.509766 1146.320312,525.765686 
	C1137.544922,510.128632 1133.263916,493.243927 1131.981934,475.471527 
	C1131.059570,462.682770 1130.016479,449.902527 1128.965332,437.123596 
	C1128.861328,435.857819 1128.607178,434.440643 1127.929810,433.421051 
	C1126.650024,431.494202 1125.204956,428.621704 1123.470215,428.338684 
	C1121.604004,428.034271 1118.789429,429.774628 1117.310059,431.440887 
	C1098.622681,452.488251 1084.827026,476.720551 1073.167847,502.093445 
	C1065.598145,518.566833 1059.656616,535.788330 1052.984375,552.674133 
	C1052.627197,553.578186 1052.305664,554.500366 1051.886475,555.375366 
	C1048.281616,562.901123 1045.236816,564.890198 1038.753418,563.990051 
	C1032.738281,563.154907 1025.822632,557.159607 1025.089478,551.475891 
	C1024.125244,544.000610 1023.520996,536.468994 1023.041138,528.943848 
	C1022.525574,520.858521 1022.030396,512.751099 1022.071106,504.656097 
	C1022.132019,492.557892 1022.509155,480.455048 1023.040771,468.366852 
	C1023.903992,448.737701 1025.156128,429.124542 1025.878906,409.491150 
	C1026.037476,405.186127 1025.020508,400.730591 1023.907654,396.512512 
	C1022.442993,390.960938 1019.998291,390.233063 1016.893433,394.812286 
	C1009.601746,405.566376 1002.576538,416.544952 996.190979,427.854706 
	C991.652283,435.893524 988.404602,444.654510 984.453857,453.033356 
	C973.974487,475.258759 965.946594,498.418396 959.205139,521.969177 
	C954.343140,538.954102 950.616272,556.281555 946.874451,573.562683 
	C944.740356,583.419067 943.357056,593.460205 942.137085,603.479248 
	C941.749756,606.660156 940.625916,607.771179 937.766113,608.009460 
	C929.990234,608.657532 924.412109,606.161743 918.637939,600.064148 
	C910.398254,591.362793 911.755249,582.242432 912.987305,572.352173 
	C913.879272,565.191589 914.361023,557.979309 914.992798,550.787231 
	C915.300964,547.279114 915.533936,543.764404 915.898193,538.972656 
	C914.612305,540.608154 914.099426,541.260437 913.336609,542.210449 
M785.067383,480.594757 
	C803.072571,453.038696 814.064087,422.792694 820.261841,390.706055 
	C813.032227,387.936584 806.536194,389.537964 801.017761,392.738953 
	C785.412842,401.790710 770.925781,412.535522 758.241943,425.415955 
	C751.452087,432.311218 745.319458,439.880035 739.171021,447.375214 
	C724.434021,465.339905 711.541077,484.477051 702.964844,506.240356 
	C697.232300,520.787415 693.056458,535.631104 693.955566,551.536316 
	C694.407288,559.526489 697.866821,563.252808 704.610657,561.897827 
	C706.933899,561.431091 709.274536,560.398987 711.277649,559.112183 
	C717.430420,555.159729 723.856812,551.464844 729.377808,546.736755 
	C737.804321,539.520447 746.406311,532.217529 753.410706,523.699036 
	C764.579285,510.116150 774.495789,495.503815 785.067383,480.594757 
z"/>
<path fill="#0074AB" opacity="1.000000" stroke="none" 
	d="
M1192.303711,204.671783 
	C1210.718872,210.726120 1228.681396,216.912262 1246.871216,222.335785 
	C1273.182861,230.180878 1299.571533,237.801178 1326.097534,244.880264 
	C1342.188110,249.174423 1358.510864,252.751511 1374.894409,255.747986 
	C1388.271973,258.194672 1401.854614,259.813385 1415.418579,260.871826 
	C1431.249512,262.107147 1447.189453,263.286346 1463.027466,262.781250 
	C1487.971191,261.985779 1512.934326,259.883759 1536.753174,251.542740 
	C1555.103882,245.116531 1573.250366,238.097198 1591.401367,231.117493 
	C1595.558594,229.518906 1599.361816,226.999985 1603.328003,224.904617 
	C1603.665161,225.283569 1604.002441,225.662521 1604.339600,226.041473 
	C1602.427246,228.323120 1600.781494,230.912460 1598.560425,232.838028 
	C1580.166870,248.784744 1561.010010,263.760529 1539.326050,275.010864 
	C1524.183960,282.867157 1508.167236,288.858521 1491.331909,291.849274 
	C1478.107422,294.198608 1464.692383,295.592712 1451.312378,296.906342 
	C1442.757690,297.746185 1434.060059,298.425842 1425.520142,297.832153 
	C1410.622681,296.796539 1395.700806,295.320679 1380.966187,292.935638 
	C1361.930664,289.854401 1342.921021,286.317474 1324.173218,281.835144 
	C1304.792969,277.201569 1285.686646,271.380981 1266.555664,265.756073 
	C1236.597778,256.947845 1206.745361,247.781570 1176.798950,238.934067 
	C1158.145142,233.422897 1139.557495,227.562698 1120.657715,223.040237 
	C1095.711914,217.071030 1070.558838,211.892349 1045.355103,207.110748 
	C1033.450195,204.852158 1021.245178,203.973618 1009.131470,203.066528 
	C991.674377,201.759323 974.154480,199.925980 956.701965,200.285858 
	C937.321411,200.685486 917.933472,202.835846 898.643555,205.049713 
	C866.155945,208.778275 834.807678,217.591248 803.920837,228.031311 
	C796.028687,230.698929 788.546875,234.558044 780.762207,237.574707 
	C776.504089,239.224777 772.006714,240.257721 767.617249,241.568954 
	C767.313782,240.956726 767.010315,240.344513 766.706848,239.732285 
	C768.880249,237.905655 770.923706,235.891159 773.248108,234.282730 
	C789.047058,223.350143 805.171448,212.867661 822.652222,204.843063 
	C846.750122,193.780792 871.187073,183.654755 896.936890,176.703018 
	C912.860413,172.404099 929.012451,170.357773 945.192444,167.921158 
	C968.511902,164.409409 991.999512,165.393173 1015.303345,166.330048 
	C1046.283081,167.575485 1076.590942,174.203506 1106.872803,181.085251 
	C1134.522705,187.368851 1161.552612,195.463943 1188.576660,203.782181 
	C1189.668335,204.118240 1190.825928,204.240753 1192.303711,204.671783 
z"/>
<path fill="#1AB9DA" opacity="1.000000" stroke="none" 
	d="
M1276.753906,570.755432 
	C1281.713013,565.128784 1287.142212,560.226562 1290.947754,554.284424 
	C1298.214844,542.937256 1305.311768,531.359192 1311.123657,519.227478 
	C1322.699219,495.065033 1331.969971,469.895233 1338.718506,443.980957 
	C1342.066284,431.125671 1342.853271,417.630066 1341.994873,404.212708 
	C1341.563354,397.466095 1343.839722,393.153046 1352.364014,393.954224 
	C1358.433350,394.524628 1364.540894,394.715668 1370.635254,394.984955 
	C1374.262573,395.145203 1375.116211,397.772766 1374.820312,400.407227 
	C1373.015869,416.475128 1370.943115,432.512695 1369.003418,448.565643 
	C1367.315430,462.534851 1364.879761,476.474731 1364.249146,490.493927 
	C1363.579468,505.376709 1364.483765,520.343628 1365.030151,535.261658 
	C1365.275391,541.955383 1365.619385,548.789307 1367.178345,555.255920 
	C1369.303833,564.072998 1373.678711,571.372864 1383.491577,574.321472 
	C1388.506470,575.828491 1392.457153,573.871460 1395.917480,571.817566 
	C1405.690063,566.016968 1415.078857,559.540100 1424.401245,553.018677 
	C1433.339966,546.765503 1441.997192,540.110779 1450.810181,533.676208 
	C1451.417725,533.232544 1452.291382,533.153320 1453.599854,532.719482 
	C1452.330078,543.056824 1448.128174,551.327148 1441.718384,558.959656 
	C1433.707642,568.498413 1424.686035,576.729492 1414.191895,583.338989 
	C1403.874268,589.837402 1392.774170,594.474365 1380.442505,594.900635 
	C1373.524414,595.139709 1366.568726,594.376465 1359.633179,594.007019 
	C1353.284546,593.668701 1350.272217,588.915466 1349.225220,583.928650 
	C1346.208252,569.560303 1342.719116,555.234192 1342.878296,540.332031 
	C1342.946777,533.925964 1341.688354,527.505676 1341.032715,521.091919 
	C1340.572510,520.986694 1340.112183,520.881470 1339.651978,520.776245 
	C1338.768311,522.184692 1337.833984,523.564209 1337.008423,525.006042 
	C1323.922119,547.860107 1311.294067,570.994934 1297.521118,593.426941 
	C1293.004395,600.783569 1288.487061,609.084656 1279.138916,612.467773 
	C1260.884766,619.074097 1242.695679,613.684021 1237.206421,592.106689 
	C1234.969971,583.315247 1234.474976,573.967224 1234.125977,564.836548 
	C1233.630127,551.858398 1234.095703,538.846130 1233.954468,525.850525 
	C1233.895264,520.418457 1233.007690,514.988464 1233.063354,509.563354 
	C1233.208252,495.467590 1233.714233,481.375946 1233.989014,467.280975 
	C1234.367920,447.855713 1234.708618,428.429504 1234.980347,409.002502 
	C1235.097290,400.647461 1235.000000,392.289368 1235.000000,383.932678 
	C1235.000000,373.245605 1235.087524,362.557434 1234.954102,351.872040 
	C1234.905029,347.939819 1234.357178,344.011963 1233.993286,340.086151 
	C1233.715942,337.096344 1234.985840,335.488953 1238.007935,336.037506 
	C1244.698975,337.252106 1251.416016,338.419434 1258.002808,340.080353 
	C1262.828735,341.297241 1265.487061,345.516663 1265.736206,349.910675 
	C1266.340332,360.566437 1266.293701,371.283051 1265.977417,381.959412 
	C1265.724487,390.495911 1264.533325,399.000061 1264.031494,407.534637 
	C1262.927368,426.314697 1262.894043,445.206818 1260.778320,463.866638 
	C1257.761719,490.472870 1257.609375,517.102173 1258.246948,543.738342 
	C1258.467529,552.959229 1259.837402,562.624207 1266.611084,570.235168 
	C1270.274780,574.351685 1272.099121,574.639465 1276.753906,570.755432 
z"/>
<path fill="#1AB9DA" opacity="1.000000" stroke="none" 
	d="
M919.000671,252.000000 
	C907.071655,252.333542 895.595459,252.130676 884.224182,253.126114 
	C867.112976,254.623993 850.071716,256.931976 833.007080,258.948944 
	C818.223267,260.696289 803.448303,262.517914 788.669434,264.306702 
	C788.499329,263.853241 788.329285,263.399811 788.159180,262.946350 
	C793.164307,260.640259 797.996826,257.797180 803.205139,256.123596 
	C822.957214,249.776794 842.802979,243.715881 862.667175,237.725739 
	C881.546204,232.032730 900.773926,227.941177 920.421509,225.989914 
	C930.869690,224.952271 941.325562,223.991913 951.778320,223.000015 
	C958.803528,222.333389 965.818542,221.345459 972.858215,221.115158 
	C978.268311,220.938171 983.712891,221.677307 989.135986,222.090347 
	C991.906616,222.301376 994.660889,222.717819 997.427185,222.995453 
	C1010.637573,224.321259 1023.822510,226.187546 1037.066528,226.828125 
	C1062.569214,228.061630 1086.675171,235.843384 1111.007568,242.236664 
	C1129.935303,247.209885 1148.465576,253.863037 1166.889648,260.549042 
	C1200.104126,272.602386 1232.937622,285.720551 1266.261475,297.452667 
	C1286.416504,304.548523 1307.091797,310.253174 1327.729980,315.858612 
	C1341.340942,319.555420 1355.262085,322.168457 1369.125244,324.848297 
	C1374.568115,325.900421 1380.231567,325.811462 1386.168335,327.277252 
	C1384.926392,327.850739 1383.708862,328.855347 1382.438354,328.927734 
	C1374.185791,329.397949 1365.913818,330.050262 1357.663330,329.886200 
	C1350.131104,329.736359 1342.603271,328.761444 1335.099976,327.914459 
	C1324.541992,326.722656 1313.976196,325.528290 1303.472656,323.944275 
	C1289.296997,321.806427 1275.062256,319.829529 1261.064453,316.804382 
	C1245.704834,313.484833 1230.535889,309.232910 1215.375977,305.053375 
	C1200.394897,300.923065 1185.547852,296.309662 1170.607910,292.027039 
	C1148.639038,285.729431 1126.714722,279.255585 1104.629395,273.391235 
	C1087.544312,268.854645 1070.328369,264.708069 1053.004150,261.212494 
	C1042.134644,259.019318 1030.953125,258.384674 1019.919373,256.989319 
	C1009.868408,255.718216 999.852356,254.114365 989.774841,253.127823 
	C982.052307,252.371780 974.260254,252.125320 966.495117,252.047043 
	C950.831665,251.889145 935.165527,252.000000 919.000671,252.000000 
z"/>
<path fill="#171717" opacity="1.000000" stroke="none" 
	d="
M963.000000,694.001404 
	C963.000610,688.670654 962.892090,683.836365 963.032715,679.009277 
	C963.173889,674.165710 966.040771,671.270020 970.805603,671.018494 
	C981.521606,670.452942 992.215759,671.684998 1001.715515,676.404663 
	C1006.942749,679.001648 1011.372559,684.208923 1014.728271,689.202698 
	C1016.852417,692.363831 1016.867493,697.299561 1016.869019,701.439697 
	C1016.870972,706.695312 1012.444336,709.342285 1008.709534,712.043762 
	C1006.724060,713.479797 1004.293274,714.300232 1001.960632,715.449158 
	C1006.927063,718.936035 1011.980896,722.432983 1016.978088,726.009094 
	C1020.971924,728.867249 1022.289124,733.310730 1020.131409,736.268311 
	C1017.793274,739.473083 1013.090271,739.777893 1008.845642,737.305725 
	C999.984863,732.145264 991.132751,726.955261 982.088623,722.130676 
	C977.872375,719.881531 976.809265,720.795166 977.040710,725.578247 
	C977.143860,727.710022 977.832520,729.811523 977.959656,731.944397 
	C978.281555,737.346252 975.785156,739.869568 970.230408,739.992493 
	C965.497559,740.097229 963.057312,737.693115 963.025818,732.483765 
	C962.949341,719.823242 963.000366,707.161926 963.000000,694.001404 
M978.000000,695.504150 
	C978.000122,697.493896 978.161682,699.499817 977.964417,701.469788 
	C977.625061,704.859680 978.822937,706.589417 982.379761,705.985046 
	C986.903320,705.216431 991.589111,704.846069 995.852417,703.319336 
	C998.260925,702.456787 1001.718384,699.474854 1001.573853,697.702637 
	C1001.351379,694.973267 999.012695,691.365417 996.553528,690.083069 
	C991.042114,687.209045 984.903503,685.537903 978.000000,683.002258 
	C978.000000,687.960876 978.000000,691.242371 978.000000,695.504150 
z"/>
<path fill="#171717" opacity="1.000000" stroke="none" 
	d="
M1343.741333,727.455933 
	C1346.298706,730.769043 1347.456177,734.138245 1344.233643,737.052307 
	C1340.993164,739.982605 1337.398560,739.428589 1333.669434,737.209351 
	C1324.997314,732.048462 1316.181519,727.126465 1307.361938,722.218933 
	C1306.024780,721.474915 1304.355957,721.326843 1301.804077,720.613220 
	C1302.187744,724.253540 1302.884521,727.005615 1302.650146,729.676025 
	C1302.390869,732.631104 1302.161865,736.563721 1300.293091,738.130798 
	C1298.394897,739.722473 1294.009033,740.004395 1291.657104,738.881531 
	C1289.720947,737.957275 1288.200684,734.155640 1288.156006,731.600037 
	C1287.856201,714.438660 1287.972046,697.269470 1288.014771,680.102966 
	C1288.030396,673.823669 1290.873291,671.138916 1297.215698,670.990356 
	C1310.315186,670.683838 1322.730835,672.831726 1333.088867,681.570251 
	C1335.827393,683.880676 1338.541138,686.627869 1340.191406,689.743774 
	C1345.003174,698.829285 1341.769409,707.957520 1332.556274,712.723145 
	C1330.674316,713.696655 1328.730835,714.551453 1326.800537,715.468079 
	C1332.376709,719.410522 1337.907837,723.321167 1343.741333,727.455933 
M1317.798462,704.579285 
	C1322.209961,703.298401 1326.022095,701.277832 1327.827881,696.776672 
	C1322.070801,686.911804 1312.651489,685.133118 1302.000000,684.259705 
	C1302.000000,687.241028 1302.000000,690.013489 1302.000000,692.786011 
	C1302.000000,707.879883 1302.000000,707.879883 1317.798462,704.579285 
z"/>
<path fill="#171717" opacity="1.000000" stroke="none" 
	d="
M1093.471924,676.255493 
	C1103.839478,672.404541 1113.692261,673.554016 1123.408203,677.222961 
	C1126.633179,678.440735 1129.569824,680.848389 1127.465454,684.291138 
	C1126.164795,686.419128 1122.623291,688.006592 1119.939575,688.258484 
	C1116.256104,688.604370 1112.358521,686.738403 1108.686157,687.116638 
	C1103.419556,687.659241 1098.213135,689.174988 1093.121338,690.733704 
	C1091.964478,691.087952 1090.867310,693.276184 1090.740356,694.708496 
	C1090.670288,695.501404 1092.570190,697.074585 1093.749634,697.266602 
	C1098.616943,698.058777 1103.588257,698.226685 1108.445068,699.065002 
	C1113.275635,699.898804 1118.277710,700.640686 1122.736450,702.528564 
	C1130.489258,705.811157 1134.941895,713.248413 1133.802979,721.277283 
	C1132.804443,728.316345 1128.018433,733.273804 1121.572998,735.890625 
	C1108.693970,741.119324 1095.280029,742.496155 1081.554199,739.923645 
	C1074.620117,738.624023 1067.700317,731.987915 1068.145264,726.551331 
	C1068.324585,724.359924 1069.817139,720.761780 1071.215698,720.500610 
	C1074.103149,719.961365 1078.346680,720.154358 1080.241577,721.943054 
	C1089.135254,730.338440 1107.028687,730.574341 1115.727051,721.771057 
	C1119.213013,718.243042 1118.469604,713.858582 1113.718262,712.527649 
	C1109.950928,711.472412 1105.889526,711.090393 1101.957275,711.082153 
	C1094.665527,711.066895 1087.854248,709.687988 1081.380127,706.220215 
	C1074.071533,702.305359 1072.242676,692.975525 1078.433472,687.262939 
	C1082.877075,683.162476 1088.195312,680.009949 1093.471924,676.255493 
z"/>
<path fill="#FFFFFF" opacity="1.000000" stroke="none" 
	d="
M747.407104,684.942810 
	C743.360657,680.492859 739.692566,676.092590 735.943970,671.338562 
	C734.237000,666.697327 732.492615,662.450134 731.013611,658.112488 
	C729.104736,652.513611 732.067688,643.992371 736.758240,641.050293 
	C742.137085,637.676514 750.778931,638.373047 755.234741,642.803650 
	C758.981323,646.529114 762.570129,649.991638 763.477112,656.084473 
	C763.970886,659.401489 766.282654,662.393799 765.205444,666.376709 
	C764.849854,667.691345 766.679016,669.791687 767.831482,671.283875 
	C771.659424,676.240173 772.063965,680.900635 767.693115,684.476440 
	C762.172241,688.993225 757.060669,691.174805 751.500244,687.011780 
	C750.383850,686.175903 749.029968,685.657349 747.407104,684.942810 
z"/>
<path fill="#FFFFFF" opacity="1.000000" stroke="none" 
	d="
M861.381104,682.090393 
	C860.672913,680.053223 860.329468,677.940918 859.910278,675.405396 
	C858.889709,668.792419 857.498413,662.630188 857.115417,656.405945 
	C856.657227,648.960327 863.206665,644.908142 869.570618,649.032593 
	C881.578186,656.814575 886.336426,659.864746 883.047668,676.084473 
	C882.885254,676.885620 882.929626,677.752869 883.013184,678.575562 
	C883.490234,683.272827 882.251404,687.291077 877.422180,688.752075 
	C871.892517,690.424805 869.018921,690.617249 864.539001,685.040527 
	C863.681519,683.973022 862.680603,683.020752 861.381104,682.090393 
z"/>
<path fill="#8CBEEF" opacity="1.000000" stroke="none" 
	d="
M756.262146,246.375427 
	C758.673279,244.251892 761.084351,242.128357 763.577820,239.932266 
	C765.928772,244.684418 764.679199,246.103531 757.276245,246.858704 
	C756.544312,246.597229 756.403198,246.486313 756.262146,246.375427 
z"/>
<path fill="#8CBEEF" opacity="1.000000" stroke="none" 
	d="
M756.879395,246.894714 
	C756.510132,247.310272 755.946899,247.539261 755.383606,247.768250 
	C755.530762,247.431030 755.677979,247.093811 756.043640,246.565994 
	C756.403198,246.486313 756.544312,246.597229 756.879395,246.894714 
z"/>
<path fill="#000000" opacity="1.000000" stroke="none" 
	d="
M1546.252930,588.247192 
	C1553.615234,582.224670 1560.696777,576.414490 1567.853394,570.698364 
	C1570.672363,568.446838 1573.282959,568.304138 1575.980347,571.360596 
	C1579.318481,575.142944 1583.463989,578.252625 1586.550903,582.207031 
	C1590.777588,587.621582 1591.378052,592.873169 1587.074707,598.223694 
	C1581.263672,605.449036 1574.913574,612.268616 1568.477173,618.956726 
	C1558.816650,628.995239 1546.531860,634.524597 1533.333618,638.134399 
	C1530.394653,638.938232 1527.098022,639.250244 1524.098267,638.834717 
	C1518.899170,638.114563 1515.071289,631.389404 1517.528809,626.224426 
	C1520.844482,619.255737 1524.784912,612.427612 1529.460571,606.305542 
	C1534.355591,599.896667 1540.438599,594.395142 1546.252930,588.247192 
z"/>
<path fill="#000000" opacity="1.000000" stroke="none" 
	d="
M621.324341,138.353882 
	C624.993408,122.007652 628.062256,105.952400 632.113220,90.148911 
	C633.706543,83.933144 637.185059,78.106377 640.373108,72.421013 
	C643.370850,67.075165 648.852173,65.478554 653.994751,68.130226 
	C658.663513,70.537651 658.607666,75.664368 658.838501,79.795998 
	C659.596680,93.368042 660.094238,106.986557 659.841370,120.571381 
	C659.686401,128.893951 658.080017,137.202057 656.936584,145.490601 
	C655.370178,156.844635 653.923340,168.228210 651.876892,179.499542 
	C649.541748,192.360016 646.807922,205.157944 643.880432,217.898758 
	C639.418640,237.317780 634.915649,256.735443 629.915527,276.020233 
	C625.576843,292.754242 620.523438,309.302979 615.507629,326.910217 
	C611.459473,322.671326 613.377502,318.446106 613.246521,314.665863 
	C613.173828,312.566284 613.953003,310.446075 613.963623,308.333252 
	C614.033936,294.343781 613.873291,280.352356 614.031677,266.364319 
	C614.234619,248.436005 614.507935,230.505432 615.053711,212.585068 
	C615.450989,199.539917 616.038513,186.485306 617.096680,173.480103 
	C618.041382,161.869781 619.747253,150.321381 621.324341,138.353882 
z"/>
<path fill="#000000" opacity="1.000000" stroke="none" 
	d="
M398.260468,442.213501 
	C400.474548,439.332306 402.225098,436.512421 404.440643,434.123932 
	C418.070435,419.430359 432.901245,406.078339 449.632477,394.981262 
	C453.709137,392.277344 458.294525,390.340363 462.646027,388.050720 
	C463.307190,388.619690 463.968353,389.188690 464.629547,389.757660 
	C459.014191,406.016327 454.072144,422.547974 447.617798,438.466400 
	C439.017853,459.676758 426.103088,478.533722 412.487396,496.820312 
	C408.070526,502.752380 403.034515,508.285706 397.829010,513.554138 
	C389.497559,521.986328 381.054016,530.350525 372.120422,538.125916 
	C367.998993,541.713074 362.753143,544.148438 357.741089,546.523560 
	C354.312103,548.148438 354.153595,545.264893 353.974030,542.739990 
	C352.882843,527.395447 356.828918,513.062012 362.981903,499.278290 
	C371.710266,479.725342 383.366241,461.888580 395.925537,444.621216 
	C396.506592,443.822357 397.311340,443.186218 398.260468,442.213501 
z"/>
<path fill="#000000" opacity="1.000000" stroke="none" 
	d="
M785.004517,480.960785 
	C774.495789,495.503815 764.579285,510.116150 753.410706,523.699036 
	C746.406311,532.217529 737.804321,539.520447 729.377808,546.736755 
	C723.856812,551.464844 717.430420,555.159729 711.277649,559.112183 
	C709.274536,560.398987 706.933899,561.431091 704.610657,561.897827 
	C697.866821,563.252808 694.407288,559.526489 693.955566,551.536316 
	C693.056458,535.631104 697.232300,520.787415 702.964844,506.240356 
	C711.541077,484.477051 724.434021,465.339905 739.171021,447.375214 
	C745.319458,439.880035 751.452087,432.311218 758.241943,425.415955 
	C770.925781,412.535522 785.412842,401.790710 801.017761,392.738953 
	C806.536194,389.537964 813.032227,387.936584 820.261841,390.706055 
	C814.064087,422.792694 803.072571,453.038696 785.004517,480.960785 
z"/>
<path fill="#000000" opacity="1.000000" stroke="none" 
	d="
M978.000000,695.013977 
	C978.000000,691.242371 978.000000,687.960876 978.000000,683.002258 
	C984.903503,685.537903 991.042114,687.209045 996.553528,690.083069 
	C999.012695,691.365417 1001.351379,694.973267 1001.573853,697.702637 
	C1001.718384,699.474854 998.260925,702.456787 995.852417,703.319336 
	C991.589111,704.846069 986.903320,705.216431 982.379761,705.985046 
	C978.822937,706.589417 977.625061,704.859680 977.964417,701.469788 
	C978.161682,699.499817 978.000122,697.493896 978.000000,695.013977 
z"/>
<path fill="#000000" opacity="1.000000" stroke="none" 
	d="
M1317.413330,704.718262 
	C1302.000000,707.879883 1302.000000,707.879883 1302.000000,692.786011 
	C1302.000000,690.013489 1302.000000,687.241028 1302.000000,684.259705 
	C1312.651489,685.133118 1322.070801,686.911804 1327.827881,696.776672 
	C1326.022095,701.277832 1322.209961,703.298401 1317.413330,704.718262 
z"/>
</svg>